<?xml version="1.0" encoding="UTF-8" standalone="no"?>
<!DOCTYPE svg PUBLIC "-//W3C//DTD SVG 1.1//EN" "http://www.w3.org/Graphics/SVG/1.1/DTD/svg11.dtd">
<svg width="100%" height="100%" viewBox="0 0 314 400" version="1.1" xmlns="http://www.w3.org/2000/svg" xmlns:xlink="http://www.w3.org/1999/xlink" xml:space="preserve" xmlns:serif="http://www.serif.com/" style="fill-rule:evenodd;clip-rule:evenodd;stroke-linejoin:round;stroke-miterlimit:2;">
  <g transform="matrix(1,0,0,1,-8784,-3026)">
    <g id="Plan-de-travail8" serif:id="Plan de travail8" transform="matrix(0.832891,0,0,1.04439,1786.05,-132.225)">
      <rect x="8402" y="3024" width="377" height="383" style="fill:none;"/>
      <g transform="matrix(1.57721,0,0,1.25781,7941.01,2918.45)">
        <path d="M316.734,257.412C310.647,255.631 310.698,231.335 311,225C311.333,218 313.344,209.704 314,202C314.667,194.167 338.333,127.667 341,123C342.654,120.106 368.311,91.305 414.885,91.248C443.347,91.213 483.333,114 490,122C494.582,127.498 516.51,194.203 517,204C517.5,214 515.5,226.333 515,235C514.596,241.996 513.422,243.855 512.422,249.688C511.585,254.572 509.922,259.688 507.422,263.688C504.924,267.686 502.096,274.305 497.422,273.688C464.589,269.355 348.067,266.579 316.734,257.412Z" style="fill:rgb(19,18,18);"/>
      </g>
      <g transform="matrix(1.57721,0,0,1.25781,7940.83,2917.58)">
        <path d="M316.734,257.412C310.647,255.631 310.698,231.335 311,225C311.333,218 313.344,209.704 314,202C314.667,194.167 312.783,185.694 315,178C317.833,168.167 326.667,152.167 331,143C334.185,136.261 338.333,127.667 341,123C342.654,120.106 346.5,117.5 347,115C347.498,112.511 343.5,108.833 344,108C344.5,107.167 349,111.167 350,110C351,108.833 348.421,103.551 350,101C352.167,97.5 357.373,90.765 363,89C371.5,86.333 389.833,85.167 401,85C410.717,84.855 420.37,86.694 430,88C439.833,89.333 451.18,88.002 460,93C470,98.667 483.333,114 490,122C494.582,127.498 497.167,134.5 500,141C502.822,147.475 505,155.333 507,161C508.649,165.673 510.878,170.173 512,175C513.667,182.167 516.51,194.203 517,204C517.5,214 515.5,226.333 515,235C514.596,241.996 513.422,243.855 512.422,249.688C511.585,254.572 509.922,259.688 507.422,263.688C504.924,267.686 502.096,274.305 497.422,273.688C464.589,269.355 348.067,266.579 316.734,257.412Z" style="fill:rgb(67,45,32);"/>
      </g>
      <g transform="matrix(1.33436,0,0,0.992355,7294.09,1142.52)">
        <ellipse cx="972.5" cy="2107" rx="117.5" ry="174" style="fill:rgb(221,172,139);"/>
      </g>
      <g transform="matrix(0.901712,-0.0623078,0.0781296,0.719109,1625.89,662.187)">
        <path d="M7233,4153C7233,4153 7255,4145 7266,4145C7277,4145 7288.21,4149.57 7299,4153C7310,4156.5 7332,4166 7332,4166C7332,4166 7338.51,4162.98 7340,4160C7341.5,4157 7344.36,4150.19 7341,4148C7334.33,4143.67 7312.17,4137 7300,4134C7289.56,4131.43 7278.34,4127.07 7268,4130C7256.83,4133.17 7233,4153 7233,4153Z" style="fill:rgb(67,45,32);"/>
      </g>
      <g transform="matrix(-0.901712,-0.0623078,-0.0781296,0.719109,15561.2,663.06)">
        <path d="M7233,4153C7233,4153 7255,4145 7266,4145C7277,4145 7288.21,4149.57 7299,4153C7310,4156.5 7332,4166 7332,4166C7332,4166 7338.51,4162.98 7340,4160C7341.5,4157 7344.36,4150.19 7341,4148C7334.33,4143.67 7312.17,4137 7300,4134C7289.56,4131.43 7278.34,4127.07 7268,4130C7256.83,4133.17 7233,4153 7233,4153Z" style="fill:rgb(67,45,32);"/>
      </g>
      <g transform="matrix(1.23661,0,0,0.793968,7028.04,1194.23)">
        <path d="M1264.52,2634.56C1264.68,2634.51 1264.86,2634.48 1265.03,2634.46C1271.7,2633.83 1277.76,2631.78 1280.71,2630.16C1287.76,2626.28 1307.12,2640.06 1310.14,2643.35C1313.49,2646.98 1324.49,2658.92 1324.49,2658.92C1324.49,2658.92 1311.21,2651.23 1303.91,2649.09C1296.02,2646.77 1283.59,2645.26 1277.11,2644.99C1273,2644.83 1269.13,2647.67 1265.02,2647.5C1264.85,2647.49 1264.68,2647.47 1264.52,2647.42C1264.36,2647.47 1264.19,2647.49 1264.02,2647.5C1259.9,2647.67 1256.04,2644.83 1251.93,2644.99C1245.44,2645.26 1233.02,2646.77 1225.12,2649.09C1217.83,2651.23 1204.55,2658.92 1204.55,2658.92C1204.55,2658.92 1215.55,2646.98 1218.89,2643.35C1221.92,2640.06 1241.27,2626.28 1248.33,2630.16C1251.28,2631.78 1257.33,2633.83 1264,2634.46C1264.18,2634.48 1264.35,2634.51 1264.52,2634.56Z" style="fill:rgb(67,45,32);"/>
      </g>
      <g transform="matrix(1.24434,0,0,0.992355,7718.22,1190.15)">
        <path d="M577.84,2016.12C577.84,2016.12 619.14,1935.19 633.64,1928.86C647.495,1922.81 677.113,1935.89 695.452,1936.04C696.305,1936.05 697.155,1936.04 698,1936C717.667,1935.17 754.833,1920.5 768,1927C781.167,1933.5 825.905,2024 825.905,2024C825.905,2024 817.333,1960.33 802,1935C786.864,1909.99 763.833,1881.67 739,1874C714.167,1866.33 675.167,1880.83 653,1889C634.856,1895.68 616.472,1906.75 606,1923C594.833,1940.33 577.84,2016.12 577.84,2016.12Z" style="fill:rgb(67,45,32);"/>
      </g>
      <g transform="matrix(0.538625,0,0,0.305612,7035.87,2492.17)">
        <path d="M2984.99,2658C2984.19,2708.91 2942.6,2750 2891.5,2750C2840.4,2750 2798.81,2708.91 2798.01,2658L2984.99,2658Z" style="fill:rgb(195,136,111);"/>
      </g>
      <g transform="matrix(0.422127,0,0,0.239512,7372.72,2670.65)">
        <path d="M2984.99,2658C2984.19,2708.91 2942.6,2750 2891.5,2750C2840.4,2750 2798.81,2708.91 2798.01,2658L2984.99,2658Z" style="fill:rgb(243,241,240);"/>
      </g>
      <g transform="matrix(1.53192,0.150043,-0.193338,1.25542,7883.27,504.096)">
        <ellipse cx="833.5" cy="2084" rx="12.5" ry="31" style="fill:rgb(221,172,139);"/>
      </g>
      <g transform="matrix(1.53696,-0.112536,0.145009,1.25956,6840.46,714.339)">
        <ellipse cx="833.5" cy="2084" rx="12.5" ry="31" style="fill:rgb(221,172,139);"/>
      </g>
      <g transform="matrix(0.244426,-0.0675129,0.0846564,0.194928,8501.61,2754.41)">
        <path d="M117.422,2617.33C123.261,2600.83 139.009,2589 157.5,2589C175.991,2589 191.739,2600.83 197.578,2617.33C191.739,2608.4 175.991,2602 157.5,2602C139.009,2602 123.261,2608.4 117.422,2617.33Z" style="fill:rgb(222,165,130);"/>
      </g>
      <g transform="matrix(0.223372,-0.253767,0.318206,0.178138,7894.22,2822.6)">
        <path d="M117.422,2617.33C123.261,2600.83 139.009,2589 157.5,2589C175.991,2589 191.739,2600.83 197.578,2617.33C191.739,2608.4 175.991,2602 157.5,2602C139.009,2602 123.261,2608.4 117.422,2617.33Z" style="fill:rgb(222,165,130);"/>
      </g>
      <g transform="matrix(-0.244426,-0.0675129,-0.0846564,0.194928,8679.57,2754.41)">
        <path d="M117.422,2617.33C123.261,2600.83 139.009,2589 157.5,2589C175.991,2589 191.739,2600.83 197.578,2617.33C191.739,2608.4 175.991,2602 157.5,2602C139.009,2602 123.261,2608.4 117.422,2617.33Z" style="fill:rgb(222,165,130);"/>
      </g>
      <g transform="matrix(-0.223372,-0.253767,-0.318206,0.178138,9286.96,2822.6)">
        <path d="M117.422,2617.33C123.261,2600.83 139.009,2589 157.5,2589C175.991,2589 191.739,2600.83 197.578,2617.33C191.739,2608.4 175.991,2602 157.5,2602C139.009,2602 123.261,2608.4 117.422,2617.33Z" style="fill:rgb(222,165,130);"/>
      </g>
      <g transform="matrix(-0.172207,0,0,0.154578,9941.1,558.287)">
        <path d="M7195.17,17312.8C7163.46,17301.4 7323.82,17207.9 7418.07,17207.9C7512.32,17207.9 7650.22,17307.3 7640.97,17312.8C7614.51,17328.5 7495.39,17281.3 7409.63,17281.3C7323.87,17281.3 7202.74,17315.6 7195.17,17312.8Z" style="fill:rgb(109,81,64);"/>
      </g>
      <g transform="matrix(0.172207,0,0,0.154578,7245.58,556.54)">
        <path d="M7195.17,17312.8C7163.46,17301.4 7323.82,17207.9 7418.07,17207.9C7512.32,17207.9 7650.22,17307.3 7640.97,17312.8C7614.51,17328.5 7495.39,17281.3 7409.63,17281.3C7323.87,17281.3 7202.74,17315.6 7195.17,17312.8Z" style="fill:rgb(109,81,64);"/>
      </g>
      <g transform="matrix(1.33186,0,0,0.992355,6906.54,627.485)">
        <path d="M1265.31,2730.33C1265.37,2730.31 1265.44,2730.3 1265.51,2730.3C1271.58,2730.12 1281.47,2730.95 1283.34,2734.03C1285.21,2737.1 1278.93,2744.21 1279.74,2748.74C1280.56,2753.27 1287.88,2750.05 1292.33,2748.88C1300.07,2746.84 1311.54,2710.75 1316.25,2705.45C1320.49,2700.68 1380.87,2646.68 1380.87,2646.68C1380.87,2646.68 1375.17,2682.81 1374.75,2693.28C1374.46,2700.26 1349.96,2750.6 1342.2,2760.4C1333.77,2771.05 1320.71,2780.6 1310.94,2787.69C1302.98,2793.46 1293.17,2796.68 1283.52,2798.56C1278.31,2799.58 1272.02,2800.19 1265.73,2800.44C1265.58,2800.44 1265.44,2800.41 1265.31,2800.35C1265.17,2800.41 1265.03,2800.44 1264.89,2800.44C1258.6,2800.19 1252.31,2799.58 1247.1,2798.56C1237.45,2796.68 1227.64,2793.46 1219.68,2787.69C1209.9,2780.6 1196.85,2771.05 1188.42,2760.4C1180.66,2750.6 1156.16,2700.26 1155.87,2693.28C1155.44,2682.81 1149.09,2646.68 1149.09,2646.68C1149.09,2646.68 1212.59,2702.43 1216.84,2707.21C1221.55,2712.51 1232.83,2738.12 1235.82,2741.84C1240.52,2747.7 1250.06,2753.27 1250.87,2748.74C1251.69,2744.21 1245.41,2737.1 1247.28,2734.03C1249.15,2730.95 1259.04,2730.12 1265.11,2730.3C1265.17,2730.3 1265.24,2730.31 1265.31,2730.33Z" style="fill:rgb(67,45,32);"/>
      </g>
    </g>
  </g>
</svg>
