<?xml version="1.0" encoding="UTF-8" standalone="no"?>
<!DOCTYPE svg PUBLIC "-//W3C//DTD SVG 1.1//EN" "http://www.w3.org/Graphics/SVG/1.1/DTD/svg11.dtd">
<svg width="100%" height="100%" viewBox="0 0 341 401" version="1.1" xmlns="http://www.w3.org/2000/svg" xmlns:xlink="http://www.w3.org/1999/xlink" xml:space="preserve" xmlns:serif="http://www.serif.com/" style="fill-rule:evenodd;clip-rule:evenodd;stroke-linejoin:round;stroke-miterlimit:2;">
  <g transform="matrix(1,0,0,1,-8402,-3024)">
    <g id="Plan-de-travail8" serif:id="Plan de travail8" transform="matrix(0.904509,0,0,1.047,802.313,-142.12)">
      <rect x="8402" y="3024" width="377" height="383" style="fill:none;"/>
      <clipPath id="_clip1">
        <rect x="8402" y="3024" width="377" height="383"/>
      </clipPath>
      <g clip-path="url(#_clip1)">
        <g transform="matrix(1.34729,0,0,1.08541,7281.95,930.926)">
          <ellipse cx="972.5" cy="2107" rx="117.5" ry="174" style="fill:rgb(241,198,170);"/>
        </g>
        <g transform="matrix(-3.74951,-0.265046,-0.306799,3.23923,9220.24,2926.04)">
          <path d="M170,90C168.806,89.867 167.167,90.167 167,89C166.833,87.833 167.424,84.86 169,84C170.833,83 175.167,82.5 178,83C180.833,83.5 183.5,85.5 186,87C188.459,88.475 193,92 193,92C193,92 186.007,90.287 184,90C181.667,89.667 178.333,89 176,89C173.972,89 171.5,90.167 170,90Z" style="fill:rgb(50,39,39);"/>
        </g>
        <g transform="matrix(3.74951,-0.265046,0.306799,3.23923,7963.44,2926.04)">
          <path d="M170,90C168.806,89.867 167.167,90.167 167,89C166.833,87.833 167.424,84.86 169,84C170.833,83 175.167,82.5 178,83C180.833,83.5 183.5,85.5 186,87C188.459,88.475 193,92 193,92C193,92 186.007,90.287 184,90C181.667,89.667 178.333,89 176,89C173.972,89 171.5,90.167 170,90Z" style="fill:rgb(50,39,39);"/>
        </g>
        <g transform="matrix(-0.173876,0,0,0.169074,9954.61,288.089)">
          <path d="M7195.17,17312.8C7163.46,17301.4 7323.82,17207.9 7418.07,17207.9C7512.32,17207.9 7650.22,17307.3 7640.97,17312.8C7614.51,17328.5 7495.39,17281.3 7409.63,17281.3C7323.87,17281.3 7202.74,17315.6 7195.17,17312.8Z" style="fill:url(#_Radial2);"/>
        </g>
        <g transform="matrix(0.173876,0,0,0.169074,7232.97,286.179)">
          <path d="M7195.17,17312.8C7163.46,17301.4 7323.82,17207.9 7418.07,17207.9C7512.32,17207.9 7650.22,17307.3 7640.97,17312.8C7614.51,17328.5 7495.39,17281.3 7409.63,17281.3C7323.87,17281.3 7202.74,17315.6 7195.17,17312.8Z" style="fill:url(#_Radial3);"/>
        </g>
        <g transform="matrix(1.24859,0,0,0.868423,7013.32,984.624)">
          <path d="M1264.52,2634.56C1264.68,2634.51 1264.86,2634.48 1265.03,2634.46C1271.7,2633.83 1277.76,2631.78 1280.71,2630.16C1287.76,2626.28 1307.12,2640.06 1310.14,2643.35C1313.49,2646.98 1324.49,2658.92 1324.49,2658.92C1324.49,2658.92 1311.21,2651.23 1303.91,2649.09C1296.02,2646.77 1283.59,2645.26 1277.11,2644.99C1273,2644.83 1269.13,2647.67 1265.02,2647.5C1264.85,2647.49 1264.68,2647.47 1264.52,2647.42C1264.36,2647.47 1264.19,2647.49 1264.02,2647.5C1259.9,2647.67 1256.04,2644.83 1251.93,2644.99C1245.44,2645.26 1233.02,2646.77 1225.12,2649.09C1217.83,2651.23 1204.55,2658.92 1204.55,2658.92C1204.55,2658.92 1215.55,2646.98 1218.89,2643.35C1221.92,2640.06 1241.27,2626.28 1248.33,2630.16C1251.28,2631.78 1257.33,2633.83 1264,2634.46C1264.18,2634.48 1264.35,2634.51 1264.52,2634.56Z" style="fill:rgb(50,39,39);"/>
        </g>
        <g transform="matrix(1.34476,0,0,1.08541,6890.64,367.597)">
          <path d="M1265.31,2730.33C1265.37,2730.31 1265.44,2730.3 1265.51,2730.3C1271.58,2730.12 1281.47,2730.95 1283.34,2734.03C1285.21,2737.1 1278.93,2744.21 1279.74,2748.74C1280.56,2753.27 1283.78,2760.02 1288.22,2761.2C1292.67,2762.38 1299.47,2759.47 1303.43,2755.82C1308.1,2751.52 1311.54,2740.67 1316.25,2735.37C1320.49,2730.59 1379.06,2663.4 1379.06,2663.4C1379.06,2663.4 1375.17,2682.81 1374.75,2693.28C1374.46,2700.26 1349.96,2750.6 1342.2,2760.4C1333.77,2771.05 1320.71,2780.6 1310.94,2787.69C1302.98,2793.46 1293.17,2796.68 1283.52,2798.56C1278.31,2799.58 1272.02,2800.19 1265.73,2800.44C1265.58,2800.44 1265.44,2800.41 1265.31,2800.35C1265.17,2800.41 1265.03,2800.44 1264.89,2800.44C1258.6,2800.19 1252.31,2799.58 1247.1,2798.56C1237.45,2796.68 1227.64,2793.46 1219.68,2787.69C1209.9,2780.6 1196.85,2771.05 1188.42,2760.4C1180.66,2750.6 1156.16,2700.26 1155.87,2693.28C1155.44,2682.81 1151.56,2663.4 1151.56,2663.4C1151.56,2663.4 1210.12,2730.59 1214.37,2735.37C1219.08,2740.67 1222.52,2751.52 1227.19,2755.82C1231.14,2759.47 1237.95,2762.38 1242.39,2761.2C1246.84,2760.02 1250.06,2753.27 1250.87,2748.74C1251.69,2744.21 1245.41,2737.1 1247.28,2734.03C1249.15,2730.95 1259.04,2730.12 1265.11,2730.3C1265.17,2730.3 1265.24,2730.31 1265.31,2730.33Z" style="fill:rgb(50,39,39);"/>
        </g>
        <g transform="matrix(1.2564,0,0,1.08541,7710.19,983.026)">
          <path d="M577.84,2016.12C577.84,2016.12 620.9,1940.47 635.4,1934.14C649.255,1928.09 678.873,1941.17 697.211,1941.32C698.065,1941.33 698.915,1941.32 699.76,1941.28C719.427,1940.45 756.593,1925.78 769.76,1932.28C782.927,1938.78 825.905,2024 825.905,2024C825.905,2024 817.333,1960.33 802,1935C786.864,1909.99 769.993,1895.75 745.16,1888.08C720.326,1880.41 689.246,1877.31 667.079,1885.48C648.935,1892.16 616.472,1915.54 606,1931.8C594.833,1949.13 577.84,2016.12 577.84,2016.12Z" style="fill:rgb(50,39,39);"/>
        </g>
        <g transform="matrix(0.484715,0,0,0.377883,7191.09,2285.49)">
          <path d="M2984.99,2658C2984.19,2708.91 2942.6,2750 2891.5,2750C2840.4,2750 2798.81,2708.91 2798.01,2658L2984.99,2658Z" style="fill:rgb(232,169,152);"/>
        </g>
        <g transform="matrix(0.379877,0,0,0.296151,7494.23,2506.18)">
          <path d="M2984.99,2658C2984.19,2708.91 2942.6,2750 2891.5,2750C2840.4,2750 2798.81,2708.91 2798.01,2658L2984.99,2658Z" style="fill:rgb(243,241,240);"/>
        </g>
        <g transform="matrix(1.55186,-0.12309,0.146414,1.37767,6823.93,462.596)">
          <ellipse cx="833.5" cy="2084" rx="12.5" ry="31" style="fill:rgb(241,198,170);"/>
        </g>
        <g transform="matrix(-0.246794,-0.073844,-0.0854767,0.213207,8680.86,2693.98)">
          <path d="M117.422,2617.33C123.261,2600.83 139.009,2589 157.5,2589C175.991,2589 191.739,2600.83 197.578,2617.33C191.739,2608.4 175.991,2602 157.5,2602C139.009,2602 123.261,2608.4 117.422,2617.33Z" style="fill:rgb(222,165,130);"/>
        </g>
        <g transform="matrix(-0.225536,-0.277565,-0.32129,0.194843,9294.13,2768.56)">
          <path d="M117.422,2617.33C123.261,2600.83 139.009,2589 157.5,2589C175.991,2589 191.739,2600.83 197.578,2617.33C191.739,2608.4 175.991,2602 157.5,2602C139.009,2602 123.261,2608.4 117.422,2617.33Z" style="fill:rgb(222,165,130);"/>
        </g>
        <g transform="matrix(1.54676,0.164114,-0.195212,1.37315,7876.83,232.637)">
          <ellipse cx="833.5" cy="2084" rx="12.5" ry="31" style="fill:rgb(241,198,170);"/>
        </g>
        <g transform="matrix(0.246794,-0.073844,0.0854767,0.213207,8501.17,2693.98)">
          <path d="M117.422,2617.33C123.261,2600.83 139.009,2589 157.5,2589C175.991,2589 191.739,2600.83 197.578,2617.33C191.739,2608.4 175.991,2602 157.5,2602C139.009,2602 123.261,2608.4 117.422,2617.33Z" style="fill:rgb(222,165,130);"/>
        </g>
        <g transform="matrix(0.225536,-0.277565,0.32129,0.194843,7887.89,2768.56)">
          <path d="M117.422,2617.33C123.261,2600.83 139.009,2589 157.5,2589C175.991,2589 191.739,2600.83 197.578,2617.33C191.739,2608.4 175.991,2602 157.5,2602C139.009,2602 123.261,2608.4 117.422,2617.33Z" style="fill:rgb(222,165,130);"/>
        </g>
      </g>
    </g>
  </g>
  <defs>
    <radialGradient id="_Radial2" cx="0" cy="0" r="1" gradientUnits="userSpaceOnUse" gradientTransform="matrix(136.543,3.75098,-1.13188,32.5225,7416.25,17261.6)">
      <stop offset="0" style="stop-color:rgb(76,59,53);stop-opacity:1"/>
      <stop offset="1" style="stop-color:rgb(64,60,58);stop-opacity:1"/>
    </radialGradient>
    <radialGradient id="_Radial3" cx="0" cy="0" r="1" gradientUnits="userSpaceOnUse" gradientTransform="matrix(136.543,3.75098,-1.13188,32.5225,7416.25,17261.6)">
      <stop offset="0" style="stop-color:rgb(76,59,53);stop-opacity:1"/>
      <stop offset="1" style="stop-color:rgb(64,60,58);stop-opacity:1"/>
    </radialGradient>
  </defs>
</svg>
