<?xml version="1.0" encoding="UTF-8" standalone="no"?>
<!DOCTYPE svg PUBLIC "-//W3C//DTD SVG 1.1//EN" "http://www.w3.org/Graphics/SVG/1.1/DTD/svg11.dtd">
<svg width="100%" height="100%" viewBox="0 0 271 385" version="1.1" xmlns="http://www.w3.org/2000/svg" xmlns:xlink="http://www.w3.org/1999/xlink" xml:space="preserve" xmlns:serif="http://www.serif.com/" style="fill-rule:evenodd;clip-rule:evenodd;stroke-linejoin:round;stroke-miterlimit:2;">
    <g transform="matrix(1,0,0,1,-20310,-4782)">
        <g id="Plan-de-travail8" serif:id="Plan de travail8" transform="matrix(0.718833,0,0,1.00522,14270.4,1742.21)">
            <rect x="8402" y="3024" width="377" height="383" style="fill:none;"/>
            <g transform="matrix(0.854158,0,0,0.610194,-9545.96,-7240.3)">
                <g transform="matrix(1.64433,0.000467477,-0.000457388,1.61207,19635.4,13767.1)">
                    <ellipse cx="972.5" cy="2107" rx="117.5" ry="174" style="fill:rgb(241,198,170);"/>
                </g>
                <g transform="matrix(1.62083,0,0,1.57664,19184.2,13036.2)">
                    <path d="M1241.3,2761.32C1243.02,2760.86 1249.41,2745.64 1265.38,2744.77C1282.57,2743.84 1287.89,2758.69 1290.62,2759.41C1295.07,2760.59 1306.89,2757.68 1310.84,2754.04C1315.51,2749.74 1340.63,2699.18 1345.34,2693.88C1349.59,2689.1 1381.52,2660.86 1381.52,2660.86C1381.52,2660.86 1373.94,2682.81 1373.51,2693.28C1373.23,2700.26 1349.96,2748.19 1342.2,2758C1333.77,2768.64 1320.71,2778.19 1310.94,2785.29C1302.98,2791.06 1293.17,2794.27 1283.52,2796.15C1278.31,2797.17 1272.02,2797.78 1265.73,2798.03C1265.58,2798.03 1265.44,2798.01 1265.31,2797.94C1265.17,2798.01 1265.03,2798.03 1264.89,2798.03C1258.6,2797.78 1252.31,2797.17 1247.1,2796.15C1237.45,2794.27 1227.64,2791.06 1219.68,2785.29C1209.9,2778.19 1196.85,2768.64 1188.42,2758C1180.66,2748.19 1156.16,2700.26 1155.87,2693.28C1155.44,2682.81 1144.16,2658.95 1144.16,2658.95C1144.16,2658.95 1181.49,2688.07 1185.73,2692.85C1190.44,2698.15 1215.18,2751.64 1219.85,2755.95C1223.8,2759.59 1236.85,2762.5 1241.3,2761.32Z" style="fill:rgb(226,184,158);"/>
                </g>
                <g transform="matrix(1.8933,0,0,1.25334,18839.6,13992.7)">
                    <path d="M1264.52,2623.45C1264.68,2623.4 1264.86,2623.37 1265.03,2623.35C1271.7,2622.72 1277.76,2620.68 1280.71,2619.05C1287.76,2615.17 1307.12,2628.96 1310.14,2632.24C1313.49,2635.87 1311.21,2651.23 1303.91,2649.09C1296.02,2646.77 1283.59,2645.26 1277.11,2644.99C1273,2644.83 1269.13,2647.67 1265.02,2647.5C1264.85,2647.49 1264.68,2647.47 1264.52,2647.42C1264.36,2647.47 1264.19,2647.49 1264.02,2647.5C1259.9,2647.67 1256.04,2644.83 1251.93,2644.99C1245.44,2645.26 1233.02,2646.77 1225.12,2649.09C1217.83,2651.23 1215.55,2635.87 1218.89,2632.24C1221.92,2628.96 1241.27,2615.17 1248.33,2619.05C1251.28,2620.68 1257.33,2622.72 1264,2623.35C1264.18,2623.37 1264.35,2623.4 1264.52,2623.45Z" style="fill:rgb(226,184,158);"/>
                </g>
                <g transform="matrix(1,0,0,1.001,-8990,-1007.48)">
                    <path d="M30043.4,17969.9C30043.2,17966.1 30043.1,17962.3 30042.9,17958.7C30042.4,17950.4 30039.6,17942 30041.4,17934C30043.4,17925.3 30044.5,17910.2 30051.1,17903C30057.6,17895.7 30078.2,17868.1 30085.5,17864.7C30090.9,17862.2 30117.4,17871.3 30119.3,17869.6C30121.2,17867.9 30118.3,17865.3 30115.9,17855.2C30113.5,17845 30115.9,17840.4 30120.2,17834.3C30124.5,17828.4 30140.5,17834.1 30142,17836C30143.4,17838 30121.2,17838.4 30125.1,17843.4C30127.9,17847.1 30132.6,17852.4 30136.7,17850.7C30140.8,17849 30144.2,17838 30149.8,17833.3C30157.5,17826.7 30185.9,17820.4 30198.6,17816.6C30213.4,17812.3 30241.2,17812.3 30253.8,17812.3C30260.7,17812.3 30268.2,17812.9 30274.1,17816.6C30280.6,17820.8 30286.9,17832.6 30293,17837C30298,17840.5 30300.6,17851.8 30308.3,17854C30313.8,17855.5 30330.9,17855.7 30345.8,17859.8C30352.7,17861.8 30365.4,17877.6 30369,17884.1C30372.6,17890.6 30381.7,17893.8 30386.4,17900.1C30388.4,17902.7 30392.6,17914.2 30397,17928C30401.3,17934.7 30404.3,17940.1 30405,17942.4C30407.1,17949.1 30423.5,17997.5 30423,18009.5C30422.5,18019.7 30427.8,18070.1 30425,18083.8C30422.1,18098.3 30425.5,18126.1 30419.8,18137.5C30416.1,18144.9 30427.3,18141.9 30425.2,18149.3C30423.2,18156.2 30426.3,18164.4 30422.9,18170.8C30417.5,18180.8 30416.5,18166.7 30408.7,18178.8C30401.8,18189.5 30405.9,18224.5 30403.7,18212.9C30401.6,18201.2 30409.9,18173.5 30408.5,18144.9C30407.4,18122.2 30392.7,18034.9 30388,18021C30385.6,18013.8 30356.9,17958.9 30326.9,17948.8C30286.7,17935.1 30240.7,17959.5 30214,17959.4C30181.6,17959.3 30133.2,17929.1 30092.5,17960.6C30084,17967.2 30054.8,18037.6 30052.8,18045.4C30051.3,18051.4 30041.9,18087.1 30041.5,18118.3C30041.2,18135 30042.5,18165.1 30042.6,18169.1C30043,18184.1 30050.5,18202.2 30046.5,18202.7C30042.5,18203.2 30032.4,18175.2 30025.5,18161.6C30020.4,18151.7 30031.2,18152.9 30027,18142.7C30022.1,18131 30025.9,18115.7 30024.5,18110.6C30022.6,18103.8 30033.1,17996 30036.8,17987.3C30037.9,17984.5 30040.4,17977.8 30043.4,17969.9Z" style="fill:rgb(71,38,35);"/>
                </g>
                <g transform="matrix(1,0,0,1,522.335,3.00301)">
                    <g transform="matrix(-1.06749,-0.0928924,-0.0927992,1.06856,28967.7,13353.4)">
                        <path d="M7233,4153C7232.49,4155.47 7255,4145 7266,4145C7277,4145 7288.21,4149.57 7299,4153C7310,4156.5 7332,4166 7332,4166C7332,4166 7338.51,4162.98 7340,4160C7341.5,4157 7344.36,4150.19 7341,4148C7334.33,4143.67 7312.17,4137 7300,4134C7289.56,4131.43 7278.34,4127.07 7268,4130C7256.83,4133.17 7235.3,4141.88 7233,4153Z" style="fill:rgb(71,38,35);"/>
                    </g>
                    <g transform="matrix(1.06005,-0.156496,0.156339,1.06112,12244.7,13848.7)">
                        <path d="M7233,4153C7232.49,4155.47 7255,4145 7266,4145C7277,4145 7288.21,4149.57 7299,4153C7310,4156.5 7332,4166 7332,4166C7332,4166 7338.51,4162.98 7340,4160C7341.5,4157 7344.36,4150.19 7341,4148C7334.33,4143.67 7312.17,4137 7300,4134C7289.56,4131.43 7278.34,4127.07 7268,4130C7256.83,4133.17 7235.3,4141.88 7233,4153Z" style="fill:rgb(71,38,35);"/>
                    </g>
                    <g transform="matrix(-0.203873,-5.79603e-05,-6.51725e-05,0.229702,22315.8,13192.8)">
                        <path d="M7195.17,17312.8C7163.46,17301.4 7323.82,17207.9 7418.07,17207.9C7512.32,17207.9 7650.22,17307.3 7640.97,17312.8C7614.51,17328.5 7495.39,17281.3 7409.63,17281.3C7323.87,17281.3 7202.74,17315.6 7195.17,17312.8Z" style="fill:rgb(109,81,64);"/>
                    </g>
                    <g transform="matrix(0.203873,5.79603e-05,-6.51725e-05,0.229702,19108.5,13191.9)">
                        <path d="M7195.17,17312.8C7163.46,17301.4 7323.82,17207.9 7418.07,17207.9C7512.32,17207.9 7650.22,17307.3 7640.97,17312.8C7614.51,17328.5 7495.39,17281.3 7409.63,17281.3C7323.87,17281.3 7202.74,17315.6 7195.17,17312.8Z" style="fill:rgb(109,81,64);"/>
                    </g>
                </g>
                <g transform="matrix(0.798266,0.000226944,-0.000142601,0.502602,18925.8,15981.9)">
                    <path d="M2984.99,2658C2984.19,2708.91 2942.6,2750 2891.5,2750C2840.4,2750 2798.81,2708.91 2798.01,2658L2984.99,2658Z" style="fill:rgb(195,136,111);"/>
                </g>
                <g transform="matrix(0.625611,0.000177859,-0.000111758,0.393895,19424.9,16275.6)">
                    <path d="M2984.99,2658C2984.19,2708.91 2942.6,2750 2891.5,2750C2840.4,2750 2798.81,2708.91 2798.01,2658L2984.99,2658Z" style="fill:rgb(243,241,240);"/>
                </g>
                <g transform="matrix(1.57614,-0.00621736,-0.136743,2.39219,20403.2,12203.8)">
                    <ellipse cx="833.5" cy="2084" rx="12.5" ry="31" style="fill:rgb(241,198,170);"/>
                </g>
                <g transform="matrix(1.59932,-0.525007,0.297265,2.33305,19083.6,12769.3)">
                    <ellipse cx="833.5" cy="2084" rx="12.5" ry="31" style="fill:rgb(241,198,170);"/>
                </g>
                <g transform="matrix(-0.264185,-0.0767179,-0.0663422,0.382934,21248,16220.5)">
                    <path d="M117.422,2617.33C123.261,2600.83 139.009,2589 157.5,2589C175.991,2589 191.739,2600.83 197.578,2617.33C191.739,2608.4 175.991,2602 157.5,2602C139.009,2602 123.261,2608.4 117.422,2617.33Z" style="fill:rgb(222,165,130);"/>
                </g>
                <g transform="matrix(-0.263563,-0.430392,-0.313273,0.39914,21893,16224.3)">
                    <path d="M117.422,2617.33C123.261,2600.83 139.009,2589 157.5,2589C175.991,2589 191.739,2600.83 197.578,2617.33C191.739,2608.4 175.991,2602 157.5,2602C139.009,2602 123.261,2608.4 117.422,2617.33Z" style="fill:rgb(222,165,130);"/>
                </g>
                <g transform="matrix(0.247019,-0.172609,0.0962058,0.34989,21146.3,16310.5)">
                    <path d="M117.422,2617.33C123.261,2600.83 139.009,2589 157.5,2589C175.991,2589 191.739,2600.83 197.578,2617.33C191.739,2608.4 175.991,2602 157.5,2602C139.009,2602 123.261,2608.4 117.422,2617.33Z" style="fill:rgb(222,165,130);"/>
                </g>
                <g transform="matrix(0.216371,-0.518171,0.334562,0.274508,20527.6,16552.5)">
                    <path d="M117.422,2617.33C123.261,2600.83 139.009,2589 157.5,2589C175.991,2589 191.739,2600.83 197.578,2617.33C191.739,2608.4 175.991,2602 157.5,2602C139.009,2602 123.261,2608.4 117.422,2617.33Z" style="fill:rgb(222,165,130);"/>
                </g>
            </g>
        </g>
    </g>
</svg>
