<svg width="341" height="433" viewBox="0 0 341 433" fill="none" xmlns="http://www.w3.org/2000/svg">
<g clip-path="url(#clip0_758_4433)">
<path d="M172 432.048C250.977 432.048 315 336.609 315 218.879C315 101.149 250.977 5.70996 172 5.70996C93.0233 5.70996 29 101.149 29 218.879C29 336.609 93.0233 432.048 172 432.048Z" fill="#F1C6AA"/>
<path d="M120.762 142.044C98.849 139.488 71.7903 157.309 61 166.539C80.4225 155.356 131.22 161.214 144.168 159.084C157.117 156.954 148.152 145.239 120.762 142.044Z" fill="#362516"/>
<path d="M222.238 142.995C244.151 140.439 271.21 158.26 282 167.49C262.577 156.308 211.78 162.165 198.832 160.035C185.883 157.905 194.848 146.19 222.238 142.995Z" fill="#362516"/>
<path fill-rule="evenodd" clip-rule="evenodd" d="M272.365 216.357C277.294 214.149 252.367 196.04 237.717 196.04C223.066 196.04 201.631 215.292 203.069 216.357C207.182 219.398 225.698 210.256 239.029 210.256C252.36 210.256 271.188 216.899 272.365 216.357Z" fill="url(#paint0_radial_758_4433)"/>
<path fill-rule="evenodd" clip-rule="evenodd" d="M74.635 213.53C69.7059 211.422 94.6327 194.137 109.283 194.137C123.934 194.137 145.369 212.513 143.931 213.53C139.818 216.433 121.302 207.706 107.971 207.706C94.6404 207.706 75.8117 214.048 74.635 213.53Z" fill="url(#paint1_radial_758_4433)"/>
<path fill-rule="evenodd" clip-rule="evenodd" d="M169.535 281.435C169.747 281.381 169.986 281.349 170.212 281.328C179.058 280.654 187.095 278.462 191.007 276.73C200.357 272.581 226.033 287.315 230.039 290.833C234.482 294.714 249.07 307.481 249.07 307.481C249.07 307.481 231.458 299.259 221.776 296.97C211.312 294.49 194.827 292.875 186.233 292.587C180.782 292.415 175.649 295.452 170.198 295.27C169.973 295.26 169.747 295.238 169.535 295.185C169.323 295.238 169.098 295.26 168.872 295.27C163.408 295.452 158.289 292.415 152.838 292.587C144.23 292.875 127.758 294.49 117.281 296.97C107.613 299.259 90 307.481 90 307.481C90 307.481 104.589 294.714 109.018 290.833C113.037 287.315 138.7 272.581 148.063 276.73C151.976 278.462 159.999 280.654 168.846 281.328C169.084 281.349 169.31 281.381 169.535 281.435Z" fill="#362516"/>
<path fill-rule="evenodd" clip-rule="evenodd" d="M170.836 380.41C209.761 382.327 233.267 333.065 238.918 326.833C244.018 321.212 313 272.291 313 272.291C313 272.291 311.356 298.292 303.929 316.037C300.785 323.564 272.467 374.389 263.156 385.914C253.041 398.438 237.37 409.669 225.647 418.006C216.096 424.792 204.325 428.578 192.746 430.789C186.495 431.989 178.947 432.706 171.4 433C171.22 433 171.052 432.965 170.896 432.894C170.728 432.965 170.56 433 170.392 433C162.845 432.706 155.297 431.989 149.046 430.789C137.467 428.578 125.696 424.792 116.145 418.006C104.41 409.669 88.751 398.438 78.6358 385.914C69.3246 374.389 44.3547 327.233 41.307 319.659C35.6195 305.536 28 265 28 265C28 265 100.738 321.47 105.825 327.091C111.477 333.324 131.143 378.446 170.836 380.41Z" fill="#362516"/>
<path fill-rule="evenodd" clip-rule="evenodd" d="M30.5359 166.407C30.5359 166.407 54.6467 128.61 71.1323 120.859C86.8845 113.452 155.33 110.44 176.179 110.624C175.219 110.673 177.15 110.636 176.179 110.624C198.539 109.608 245.21 117.088 248.737 63.755C248.737 110.624 312.57 176.055 312.57 176.055C312.57 176.055 319.669 101.123 302.236 70.1098C285.027 39.4881 257.937 18.4522 229.703 9.06124C201.469 -0.329742 148.858 -4.07269 123.656 5.93048C103.027 14.1093 60.4335 22.573 45.6208 58.1088C25.6109 106.113 30.5359 166.407 30.5359 166.407Z" fill="#362516"/>
<path fill-rule="evenodd" clip-rule="evenodd" d="M224 307C223.542 329.118 199.742 346.969 170.5 346.969C141.258 346.969 117.458 329.118 117 307H224Z" fill="#E8A998"/>
<path fill-rule="evenodd" clip-rule="evenodd" d="M212 310.807C211.645 328.185 193.183 342.211 170.5 342.211C147.817 342.211 129.355 328.185 129 310.807H212Z" fill="#F3F1F0"/>
<path d="M22.6747 282.225C32.365 281.265 38.3825 258.884 36.1152 232.235C33.8478 205.586 24.1542 184.761 14.4639 185.721C4.77353 186.681 -1.24397 209.062 1.02339 235.711C3.29074 262.36 12.9844 283.185 22.6747 282.225Z" fill="#F1C6AA"/>
<path fill-rule="evenodd" clip-rule="evenodd" d="M23.6612 247.844C23.6335 243.382 21.0328 239.219 16.9051 237.676C12.7774 236.133 8.34734 237.669 5.76822 241.156C7.76207 239.492 11.7723 239.265 15.9 240.807C20.0277 242.35 23.0482 245.206 23.6612 247.844Z" fill="#DEA582"/>
<path fill-rule="evenodd" clip-rule="evenodd" d="M22.3608 250.775C25.9647 245.311 26.19 237.768 22.4179 231.97C18.6457 226.171 11.9952 223.837 6.00898 225.638C9.79528 225.503 14.8678 229.033 18.6399 234.831C22.4121 240.63 23.7647 246.978 22.3608 250.775Z" fill="#DEA582"/>
<path d="M317.642 282.073C327.301 283.353 337.581 262.858 340.604 236.297C343.627 209.735 338.248 187.165 328.59 185.885C318.931 184.605 308.651 205.1 305.628 231.661C302.605 258.223 307.984 280.793 317.642 282.073Z" fill="#F1C6AA"/>
<path fill-rule="evenodd" clip-rule="evenodd" d="M318.268 247.844C318.296 243.382 320.897 239.219 325.025 237.676C329.152 236.133 333.582 237.669 336.161 241.156C334.168 239.492 330.157 239.265 326.03 240.807C321.902 242.35 318.881 245.206 318.268 247.844Z" fill="#DEA582"/>
<path fill-rule="evenodd" clip-rule="evenodd" d="M319.557 250.775C315.953 245.311 315.728 237.768 319.5 231.97C323.272 226.171 329.923 223.837 335.909 225.638C332.123 225.503 327.05 229.033 323.278 234.831C319.506 240.63 318.153 246.978 319.557 250.775Z" fill="#DEA582"/>
<path d="M56 204.784C56 194.102 62.7857 184.6 72.8896 181.133L74.2515 180.665C94.1802 173.827 115.82 173.827 135.749 180.665L137.11 181.133C147.214 184.6 154 194.102 154 204.784V206.658C154 225.33 143.389 242.378 126.636 250.623C112.993 257.337 97.0065 257.337 83.3635 250.623C66.6111 242.378 56 225.33 56 206.658V204.784Z" fill="white" fill-opacity="0.4" stroke="#362516" stroke-width="4"/>
<path d="M288 204.784C288 194.102 281.214 184.6 271.11 181.133L269.749 180.665C249.82 173.827 228.18 173.827 208.251 180.665L206.89 181.133C196.786 184.6 190 194.102 190 204.784V206.658C190 225.33 200.611 242.378 217.364 250.623C231.007 257.337 246.993 257.337 260.636 250.623C277.389 242.378 288 225.33 288 206.658V204.784Z" fill="white" fill-opacity="0.4" stroke="#362516" stroke-width="4"/>
<path d="M153.5 206.507C160.418 201.48 174.802 194.443 191 206.507" stroke="#362516" stroke-width="4"/>
<path d="M29 199L57.5 200" stroke="#362516" stroke-width="4"/>
<path d="M314.5 198L287.5 200.5" stroke="#362516" stroke-width="4"/>
</g>
<defs>
<radialGradient id="paint0_radial_758_4433" cx="0" cy="0" r="1" gradientUnits="userSpaceOnUse" gradientTransform="translate(238 206.441) rotate(178.04) scale(21.237 6.30121)">
<stop stop-color="#4C3B35"/>
<stop offset="1" stop-color="#403C3A"/>
</radialGradient>
<radialGradient id="paint1_radial_758_4433" cx="0" cy="0" r="1" gradientUnits="userSpaceOnUse" gradientTransform="translate(109 204.064) rotate(1.87133) scale(21.2359 6.0151)">
<stop stop-color="#4C3B35"/>
<stop offset="1" stop-color="#403C3A"/>
</radialGradient>
<clipPath id="clip0_758_4433">
<rect width="341" height="433" fill="white"/>
</clipPath>
</defs>
</svg>
