<?xml version="1.0" encoding="UTF-8" standalone="no"?>
<!DOCTYPE svg PUBLIC "-//W3C//DTD SVG 1.1//EN" "http://www.w3.org/Graphics/SVG/1.1/DTD/svg11.dtd">
<svg width="100%" height="100%" viewBox="0 0 461 186" version="1.1" xmlns="http://www.w3.org/2000/svg" xmlns:xlink="http://www.w3.org/1999/xlink" xml:space="preserve" xmlns:serif="http://www.serif.com/" style="fill-rule:evenodd;clip-rule:evenodd;stroke-linejoin:round;stroke-miterlimit:2;">
  <g transform="matrix(1,0,0,1,-15529,-2416)">
    <g id="Plan-de-travail8" serif:id="Plan de travail8" transform="matrix(1.22281,0,0,0.48564,5254.94,947.426)">
      <rect x="8402" y="3024" width="377" height="383" style="fill:none;"/>
      <clipPath id="_clip1">
        <rect x="8402" y="3024" width="377" height="383"/>
      </clipPath>
      <g clip-path="url(#_clip1)">
        <g transform="matrix(1.57484,0,0,2.08602,-5300.01,-3492.1)">
          <g transform="matrix(0.510627,0.17949,-0.0944229,0.970658,1076.43,-6694.92)">
            <path d="M16430,7221C16430,7221 16426.3,7219.17 16423,7217.5C16419.7,7215.83 16413.6,7212.74 16410,7211C16405.2,7208.67 16396.1,7207.09 16389,7206C16380.3,7204.67 16368.2,7204.76 16358,7203C16347.3,7201.17 16335.5,7199.34 16325,7195C16314.2,7190.5 16295.2,7180.17 16293,7176C16290.8,7171.83 16305.4,7170.31 16312,7170C16326.5,7169.33 16361.7,7169.33 16380,7172C16394.6,7174.12 16422,7186 16422,7186L16430,7221Z" style="fill:rgb(87,141,129);"/>
          </g>
          <g transform="matrix(0.511229,-0.173191,0.0911092,0.971801,-265.166,-880.923)">
            <path d="M16583,7215C16583,7215 16589.7,7213.75 16593,7213C16600.3,7211.33 16618.3,7206.83 16627,7205C16633,7203.74 16639.2,7203.76 16645,7202C16652.2,7199.83 16663.7,7195.33 16670,7192C16674.8,7189.45 16678.8,7185.5 16683,7182C16687.2,7178.51 16691.8,7173.83 16695,7171C16697.3,7168.95 16699.2,7166.31 16702,7165C16704.8,7163.67 16709.2,7163.67 16712,7163C16714.4,7162.44 16721.4,7161.36 16719,7161C16715.7,7160.5 16700.9,7158.38 16692,7160C16680.2,7162.17 16662.6,7169.05 16648,7174C16629.8,7180.17 16583,7197 16583,7197L16583,7215" style="fill:rgb(87,141,129);"/>
          </g>
          <g transform="matrix(0.507812,-0.206337,0.108546,0.965307,-335.409,-274.831)">
            <path d="M16589.1,7202C16589.1,7202 16602.2,7197.84 16608.1,7196C16613.4,7194.33 16618.5,7194.1 16624,7193C16631.5,7191.5 16644.3,7192.39 16652,7190.39C16658,7188.81 16665.3,7184.33 16670,7181C16674.4,7177.85 16679.3,7175.28 16683.9,7172.42C16689.6,7168.92 16714.2,7155.57 16706.2,7153.74C16696.7,7151.57 16641.2,7145.77 16622.3,7145.94C16611.2,7146.04 16591,7161 16591,7161L16589.1,7202Z" style="fill:rgb(145,71,63);"/>
          </g>
          <g transform="matrix(0.511229,-0.173191,0.0911092,0.971801,-265.166,-880.923)">
            <path d="M16584,7125C16584,7125 16596.7,7134.81 16604,7138C16612,7141.5 16622.5,7143.83 16632,7146C16642.2,7148.33 16655,7150.83 16665,7152C16673.9,7153.04 16684.3,7152.67 16692,7153C16698.3,7153.28 16705.3,7153 16711,7154C16716.2,7154.92 16723,7157.33 16726,7159C16727.7,7159.94 16730.9,7163.56 16729,7164C16726.8,7164.5 16718.4,7162.25 16713,7162C16705.8,7161.67 16695,7161.75 16686,7162C16674,7162.33 16652.7,7164.33 16641,7164C16632.6,7163.76 16621.8,7160 16616,7160C16612.4,7160 16609,7162.09 16606,7164C16601.5,7166.83 16589,7177 16589,7177L16584,7125Z" style="fill:rgb(47,141,129);"/>
          </g>
          <g transform="matrix(0.507107,0.212516,-0.111797,0.963966,1258.57,-7184.36)">
            <path d="M16420,7205C16420,7205 16406.9,7199.83 16400,7199C16390.3,7197.83 16372.5,7199 16362,7198C16353.5,7197.19 16345,7195.74 16337,7193C16328.7,7190.17 16317.8,7184 16312,7181C16308.5,7179.22 16298.3,7176.07 16302,7175C16312.5,7172 16357.8,7164.5 16375,7163C16385,7162.12 16396.5,7163.83 16405,7166C16412.5,7167.91 16426,7176 16426,7176L16420,7205Z" style="fill:rgb(145,71,63);"/>
          </g>
          <g transform="matrix(0.510627,0.17949,-0.0944229,0.970658,1076.43,-6694.92)">
            <path d="M16423,7127C16423,7127 16403.7,7139.81 16393,7144C16381.5,7148.5 16367.1,7150.89 16354,7154C16339.3,7157.5 16317.2,7162.5 16305,7165C16297.1,7166.63 16288.3,7167 16281,7169C16274.1,7170.89 16264.7,7174.67 16261,7177C16259.2,7178.13 16257,7182.46 16259,7183C16261.5,7183.67 16270.3,7181.75 16276,7181C16284.8,7179.83 16300,7177 16312,7176C16324,7175 16338.5,7175.83 16348,7175C16355.1,7174.38 16362.7,7172 16369,7171C16374.6,7170.11 16380.4,7168.01 16386,7169C16391.7,7170 16397.8,7173.45 16403,7177C16408.3,7180.67 16418,7191 16418,7191L16423,7127" style="fill:rgb(47,141,129);"/>
          </g>
          <g transform="matrix(0.519284,0,0,1.15554,256.515,-5069.71)">
            <path d="M16413,7204C16409.6,7197.05 16410.3,7188.73 16410,7181C16409.7,7173 16409.7,7164.24 16411,7156C16412.3,7147.67 16412.9,7137.99 16418,7131C16423.8,7123 16435.3,7113.51 16446,7108C16459,7101.33 16478.5,7092.17 16496,7091C16513.5,7089.83 16537.7,7097 16551,7101C16560.1,7103.74 16570,7110.33 16576,7115C16580.7,7118.64 16584.7,7124.83 16587,7129C16588.9,7132.32 16589.5,7136.24 16590,7140C16590.7,7144.67 16590.8,7153.17 16591,7157C16591.1,7159 16590.8,7161.01 16591,7163C16591.3,7166 16592.8,7170.95 16593,7175C16593.3,7180.67 16594.5,7190.17 16593,7197C16591.5,7203.83 16588.2,7211.33 16584,7216C16579.9,7220.57 16573.2,7221.78 16568,7225C16562.3,7228.5 16556.9,7234.77 16550,7237C16537.2,7241.17 16518.2,7248 16503,7249C16492.1,7249.72 16468.8,7247 16459,7243C16449.2,7239 16439.7,7232.5 16432,7226C16424.6,7219.73 16416.7,7211.5 16413,7204Z" style="fill:rgb(47,141,129);"/>
          </g>
          <g transform="matrix(-0.0605882,0,0,0.129635,9300.57,979.134)">
            <path d="M7195.17,17312.8C7163.46,17301.4 7323.82,17207.9 7418.07,17207.9C7512.32,17207.9 7650.22,17307.3 7640.97,17312.8C7614.51,17328.5 7495.39,17262.7 7409.63,17262.7C7323.87,17262.7 7202.74,17315.6 7195.17,17312.8Z" style="fill:rgb(19,14,11);"/>
          </g>
          <g transform="matrix(0.0605882,0,0,0.129635,8352.2,979.134)">
            <path d="M7195.17,17312.8C7163.46,17301.4 7323.82,17207.9 7418.07,17207.9C7512.32,17207.9 7650.22,17307.3 7640.97,17312.8C7614.51,17328.5 7495.39,17262.7 7409.63,17262.7C7323.87,17262.7 7202.74,17315.6 7195.17,17312.8Z" style="fill:rgb(19,14,11);"/>
          </g>
          <g transform="matrix(0.519284,0,0,0.987113,256.515,-3857.66)">
            <path d="M16517.9,7173.4C16517.9,7173.4 16520.8,7166.61 16523.9,7160.52C16525.5,7157.25 16527.2,7154.18 16528.6,7152.49C16530.2,7150.58 16532.1,7149.01 16534.3,7147.72C16536.5,7146.42 16538.8,7145.4 16541.2,7144.6C16544.1,7143.6 16547.7,7142.59 16551.2,7142.19C16553.6,7141.92 16555.9,7141.94 16557.9,7142.45C16559.9,7142.97 16561.7,7144.1 16563.5,7145.5C16566.1,7147.53 16568.4,7150.11 16570.8,7152.23C16572.1,7153.41 16573.8,7155.1 16575.4,7156.82C16578.7,7160.37 16581.9,7164.1 16581.9,7164.1C16581.9,7164.16 16582,7164.17 16582.1,7164.12C16582.2,7164.06 16582.2,7163.97 16582.1,7163.9C16582.1,7163.9 16579,7160.11 16575.7,7156.49C16574.1,7154.72 16572.5,7152.99 16571.2,7151.77C16568.9,7149.6 16566.5,7146.96 16564,7144.87C16562.2,7143.36 16560.2,7142.14 16558.1,7141.55C16556,7140.97 16553.6,7140.9 16551.1,7141.14C16547.5,7141.48 16543.8,7142.44 16540.8,7143.4C16538.3,7144.19 16535.9,7145.21 16533.6,7146.51C16531.2,7147.84 16529.1,7149.49 16527.4,7151.51C16526,7153.23 16524.1,7156.37 16522.3,7159.72C16519.1,7165.81 16516.1,7172.6 16516.1,7172.6C16515.9,7173.11 16516.1,7173.7 16516.6,7173.92C16517.1,7174.14 16517.7,7173.9 16517.9,7173.4Z" style="fill:rgb(24,72,65);"/>
          </g>
          <g transform="matrix(-0.519284,0,0,0.987113,17395.5,-3855.68)">
            <path d="M16516.1,7172.6C16516.1,7172.6 16519.1,7165.81 16522.3,7159.72C16524.1,7156.37 16526,7153.23 16527.4,7151.51C16529.1,7149.49 16531.2,7147.84 16533.6,7146.51C16535.9,7145.21 16538.3,7144.19 16540.8,7143.4C16543.8,7142.44 16547.5,7141.48 16551.1,7141.14C16553.6,7140.9 16556,7140.97 16558.1,7141.55C16560.2,7142.14 16562.2,7143.36 16564,7144.87C16566.5,7146.96 16568.9,7149.6 16571.2,7151.77C16572.5,7152.99 16574.1,7154.72 16575.7,7156.49C16579,7160.11 16582.1,7163.9 16582.1,7163.9C16582.2,7163.97 16582.2,7164.06 16582.1,7164.12C16582,7164.17 16581.9,7164.16 16581.9,7164.1C16581.9,7164.1 16578.7,7160.37 16575.4,7156.82C16573.8,7155.1 16572.1,7153.41 16570.8,7152.23C16568.4,7150.11 16566.1,7147.53 16563.5,7145.5C16561.7,7144.1 16559.9,7142.97 16557.9,7142.45C16555.9,7141.94 16553.6,7141.92 16551.2,7142.19C16547.7,7142.59 16544.1,7143.6 16541.2,7144.6C16538.8,7145.4 16536.5,7146.42 16534.3,7147.72C16532.1,7149.01 16530.2,7150.58 16528.6,7152.49C16527.2,7154.18 16525.5,7157.25 16523.9,7160.52C16520.8,7166.61 16517.9,7173.4 16517.9,7173.4C16517.7,7173.9 16517.1,7174.14 16516.6,7173.92C16516.1,7173.7 16515.9,7173.11 16516.1,7172.6Z" style="fill:rgb(24,72,65);"/>
          </g>
          <g transform="matrix(0.18693,0,0,0.245394,8286.04,2606.68)">
            <path d="M2984.99,2658C2984.19,2708.91 2942.6,2750 2891.5,2750C2840.4,2750 2798.81,2708.91 2798.01,2658L2984.99,2658Z" style="fill:rgb(24,72,65);"/>
          </g>
          <g transform="matrix(0.146499,0,0,0.192318,8402.95,2750)">
            <path d="M2984.99,2658C2984.19,2708.91 2942.6,2750 2891.5,2750C2840.4,2750 2798.81,2708.91 2798.01,2658L2984.99,2658Z" style="fill:rgb(243,241,240);"/>
          </g>
          <g transform="matrix(0.519284,0,0,0.987113,256.515,-3857.66)">
            <path d="M16481.4,7234.78C16483.7,7236.56 16485.9,7238.88 16488.2,7240.64C16489.3,7241.51 16490.5,7242.25 16491.7,7242.73C16493.1,7243.33 16494.7,7243.63 16496.3,7243.75C16498.5,7243.93 16500.8,7243.75 16503,7243.62C16505.5,7243.48 16508.3,7243.33 16511,7242.85C16512.8,7242.53 16514.5,7242.07 16516.2,7241.39C16517.6,7240.77 16519.1,7239.91 16520.6,7238.93C16523.7,7236.85 16526.9,7234.22 16530.1,7232.13C16530.2,7232.08 16530.2,7231.99 16530.1,7231.92C16530.1,7231.85 16530,7231.82 16529.9,7231.87C16526.7,7233.86 16523.4,7236.39 16520.2,7238.36C16518.7,7239.27 16517.3,7240.06 16515.8,7240.61C16514.3,7241.23 16512.6,7241.61 16510.8,7241.86C16508.1,7242.26 16505.4,7242.32 16503,7242.38C16500.8,7242.43 16498.6,7242.54 16496.4,7242.3C16495,7242.15 16493.6,7241.84 16492.3,7241.27C16491.3,7240.8 16490.3,7240.1 16489.3,7239.29C16487,7237.46 16484.9,7235.07 16482.6,7233.22C16482.2,7232.87 16481.6,7232.94 16481.2,7233.38C16480.9,7233.81 16480.9,7234.44 16481.4,7234.78Z" style="fill:rgb(24,72,65);"/>
          </g>
          <g transform="matrix(0.519284,0,0,0.987113,256.515,-3866.54)">
            <path d="M16427.1,7147.17C16431.4,7144.31 16436.1,7140.78 16440.3,7137.93C16442.4,7136.53 16444.4,7135.3 16446.2,7134.39C16447.4,7133.77 16448.8,7133.32 16450.2,7132.94C16453.8,7132.01 16457.6,7131.58 16460.2,7130.53C16462.5,7129.6 16464.5,7127.55 16466.6,7126.32C16467.1,7126.03 16467.6,7125.78 16468.2,7125.62C16468.7,7125.47 16469.3,7125.41 16469.8,7125.39C16472.2,7125.31 16474.7,7126.08 16477.1,7125.7C16479.9,7125.25 16483.9,7123.62 16487.6,7122.59C16489.2,7122.15 16490.7,7121.82 16492,7121.77C16493.4,7121.72 16494.8,7122.23 16496.1,7122.81C16497.6,7123.44 16499,7124.17 16500.5,7124.54C16501.4,7124.75 16502.2,7124.85 16503.1,7124.78C16504.5,7124.65 16506,7123.99 16507.6,7123.15C16509.5,7122.11 16511.4,7120.8 16513.5,7120.13C16514.3,7119.86 16515.1,7119.7 16516,7119.72C16516.9,7119.75 16517.9,7120 16518.9,7120.36C16522.7,7121.74 16526.7,7124.79 16530.9,7125.61C16534.9,7126.4 16539.7,7125.53 16544.3,7125.62C16546.2,7125.66 16548.1,7125.87 16549.8,7126.45C16552.2,7127.24 16554.9,7128.5 16557.6,7129.99C16563.2,7133.06 16569.3,7137.1 16574.9,7140.18C16575,7140.23 16575.1,7140.2 16575.2,7140.1C16575.2,7140 16575.2,7139.88 16575.1,7139.82C16569.5,7136.64 16563.5,7132.48 16558,7129.3C16555.2,7127.73 16552.6,7126.41 16550.2,7125.55C16548.3,7124.91 16546.4,7124.66 16544.4,7124.58C16539.8,7124.42 16535.1,7125.23 16531.1,7124.39C16527.1,7123.52 16523.1,7120.44 16519.4,7119.03C16518.3,7118.6 16517.1,7118.32 16516,7118.28C16515,7118.24 16514,7118.41 16513,7118.73C16511.2,7119.29 16509.5,7120.31 16507.8,7121.26C16506.1,7122.21 16504.5,7123.1 16502.9,7123.22C16501.5,7123.34 16500.2,7122.87 16498.8,7122.3C16497.4,7121.69 16496,7120.95 16494.5,7120.55C16493.7,7120.32 16492.8,7120.19 16492,7120.23C16490.6,7120.28 16488.9,7120.64 16487.2,7121.13C16483.6,7122.17 16479.6,7123.83 16476.9,7124.3C16474.6,7124.7 16472.1,7123.96 16469.8,7124.06C16469.1,7124.09 16468.4,7124.19 16467.8,7124.38C16467.2,7124.57 16466.6,7124.86 16466,7125.23C16463.9,7126.46 16462,7128.52 16459.8,7129.47C16457.2,7130.55 16453.5,7131.02 16450,7132.01C16448.5,7132.43 16447.1,7132.93 16445.8,7133.61C16444,7134.57 16442,7135.85 16439.9,7137.3C16435.7,7140.25 16431.1,7143.88 16426.9,7146.83C16426.8,7146.9 16426.8,7147.02 16426.8,7147.11C16426.9,7147.21 16427,7147.23 16427.1,7147.17Z" style="fill:rgb(24,72,65);"/>
          </g>
          <g transform="matrix(0.519284,0,0,0.987113,256.515,-3873.45)">
            <path d="M16438.3,7139.15C16439.9,7138.05 16441.4,7137 16442.9,7136.09C16444,7135.41 16445.1,7134.8 16446.1,7134.28C16447.4,7133.66 16448.8,7133.21 16450.2,7132.84C16453.7,7131.91 16457.6,7131.49 16460.2,7130.45C16462.5,7129.53 16464.4,7127.49 16466.6,7126.27C16467.1,7125.97 16467.6,7125.72 16468.2,7125.57C16468.7,7125.41 16469.2,7125.35 16469.8,7125.33C16472.2,7125.26 16474.7,7126.04 16477.1,7125.66C16479.9,7125.22 16483.9,7123.59 16487.6,7122.57C16489.2,7122.13 16490.7,7121.81 16492,7121.76C16493.4,7121.71 16494.8,7122.22 16496.1,7122.8C16497.6,7123.44 16499,7124.17 16500.5,7124.54C16501.4,7124.75 16502.2,7124.85 16503.1,7124.78C16504.5,7124.65 16506,7123.99 16507.6,7123.15C16509.5,7122.11 16511.4,7120.8 16513.5,7120.13C16514.3,7119.86 16515.1,7119.69 16516,7119.72C16516.9,7119.75 16517.9,7119.99 16518.9,7120.35C16522.7,7121.73 16526.7,7124.77 16530.9,7125.59C16534.9,7126.37 16539.7,7125.49 16544.3,7125.57C16546.2,7125.61 16548.1,7125.81 16549.9,7126.39C16551.9,7127.07 16554.2,7128.1 16556.5,7129.33C16559.6,7130.94 16562.8,7132.89 16566.1,7134.85C16566.2,7134.91 16566.3,7134.88 16566.3,7134.79C16566.4,7134.69 16566.4,7134.57 16566.3,7134.51C16563.1,7132.47 16559.9,7130.44 16556.8,7128.75C16554.5,7127.45 16552.2,7126.36 16550.1,7125.61C16548.3,7124.97 16546.4,7124.71 16544.4,7124.64C16539.8,7124.46 16535.1,7125.27 16531.1,7124.41C16527,7123.54 16523.1,7120.45 16519.4,7119.04C16518.3,7118.61 16517.1,7118.33 16516,7118.28C16515,7118.24 16514,7118.41 16513,7118.73C16511.2,7119.29 16509.5,7120.31 16507.8,7121.26C16506.1,7122.21 16504.5,7123.1 16502.9,7123.22C16501.5,7123.34 16500.2,7122.87 16498.8,7122.3C16497.4,7121.69 16496,7120.96 16494.5,7120.55C16493.7,7120.33 16492.8,7120.2 16492,7120.24C16490.6,7120.3 16488.9,7120.65 16487.2,7121.15C16483.6,7122.2 16479.6,7123.87 16476.9,7124.34C16474.6,7124.75 16472.1,7124.01 16469.8,7124.12C16469.1,7124.15 16468.5,7124.24 16467.8,7124.43C16467.2,7124.63 16466.6,7124.92 16466,7125.28C16463.9,7126.53 16462.1,7128.59 16459.8,7129.55C16457.2,7130.63 16453.5,7131.11 16450,7132.11C16448.5,7132.53 16447.1,7133.04 16445.9,7133.72C16444.8,7134.26 16443.8,7134.91 16442.6,7135.63C16441.2,7136.58 16439.6,7137.67 16438,7138.82C16437.9,7138.88 16437.9,7139.01 16438,7139.1C16438,7139.19 16438.2,7139.21 16438.3,7139.15Z" style="fill:rgb(24,72,65);"/>
          </g>
          <g transform="matrix(0.519284,0,0,0.987113,256.515,-3881.35)">
            <path d="M16450.6,7132.56C16452.9,7132 16455.2,7131.64 16457.3,7131.17C16458.3,7130.93 16459.3,7130.66 16460.1,7130.33C16462.5,7129.42 16464.4,7127.38 16466.5,7126.17C16467,7125.87 16467.6,7125.62 16468.1,7125.47C16468.7,7125.32 16469.2,7125.25 16469.8,7125.24C16472.2,7125.18 16474.7,7125.96 16477.1,7125.6C16479.9,7125.16 16483.9,7123.56 16487.6,7122.55C16489.2,7122.11 16490.7,7121.78 16492,7121.74C16493.4,7121.7 16494.8,7122.21 16496.1,7122.8C16497.6,7123.44 16499,7124.17 16500.5,7124.54C16501.4,7124.75 16502.2,7124.85 16503.1,7124.78C16504.5,7124.65 16506,7123.99 16507.6,7123.15C16509.5,7122.11 16511.4,7120.79 16513.5,7120.12C16514.3,7119.85 16515.1,7119.68 16516,7119.71C16516.9,7119.73 16517.9,7119.97 16518.9,7120.34C16522.7,7121.7 16526.8,7124.73 16530.9,7125.53C16534.9,7126.31 16539.7,7125.41 16544.3,7125.48C16546.3,7125.51 16548.1,7125.71 16549.9,7126.28C16550.9,7126.61 16552,7127.02 16553,7127.49C16554,7127.93 16555,7128.41 16556.1,7128.94C16556.2,7128.99 16556.3,7128.96 16556.3,7128.86C16556.4,7128.76 16556.4,7128.64 16556.3,7128.59C16555.2,7128.02 16554.2,7127.5 16553.2,7127.03C16552.2,7126.52 16551.1,7126.08 16550.1,7125.72C16548.3,7125.07 16546.3,7124.81 16544.4,7124.73C16539.8,7124.54 16535,7125.33 16531.1,7124.47C16527,7123.58 16523.1,7120.48 16519.4,7119.06C16518.3,7118.62 16517.1,7118.34 16516,7118.29C16515,7118.25 16514,7118.42 16513,7118.74C16511.2,7119.3 16509.5,7120.31 16507.8,7121.26C16506.1,7122.2 16504.5,7123.09 16502.9,7123.22C16501.5,7123.34 16500.2,7122.87 16498.8,7122.31C16497.4,7121.69 16496,7120.97 16494.5,7120.57C16493.7,7120.34 16492.8,7120.22 16492,7120.26C16490.6,7120.32 16488.9,7120.68 16487.2,7121.18C16483.6,7122.24 16479.6,7123.92 16476.9,7124.4C16474.6,7124.82 16472.1,7124.09 16469.8,7124.21C16469.1,7124.25 16468.5,7124.34 16467.9,7124.53C16467.2,7124.73 16466.6,7125.02 16466,7125.38C16464,7126.63 16462.1,7128.7 16459.9,7129.67C16459.1,7130.02 16458.1,7130.3 16457.1,7130.57C16455.1,7131.1 16452.7,7131.54 16450.5,7132.17C16450.4,7132.19 16450.3,7132.31 16450.3,7132.41C16450.4,7132.52 16450.5,7132.59 16450.6,7132.56Z" style="fill:rgb(24,72,65);"/>
          </g>
        </g>
      </g>
    </g>
  </g>
</svg>
