<svg width="247" height="41" viewBox="0 0 247 41" fill="none" xmlns="http://www.w3.org/2000/svg">
<path d="M51.0312 31V13.041H44.7031V9.8623H61.1094V13.041H54.7959V31H51.0312ZM62.2385 31V9.8623H65.8859V18.0801H65.9738C66.7795 16.2197 68.4348 15.1504 70.7639 15.1504C74.1037 15.1504 76.2424 17.582 76.2424 21.332V31H72.5949V22.0498C72.5949 19.6621 71.3937 18.2266 69.299 18.2266C67.2336 18.2266 65.8859 19.7939 65.8859 22.0498V31H62.2385ZM84.8129 31.3076C80.1547 31.3076 77.3422 28.2168 77.3422 23.2803V23.2656C77.3422 18.373 80.1986 15.1504 84.6371 15.1504C89.0756 15.1504 91.8295 18.2705 91.8295 22.958V24.1299H80.9604C81.0189 26.8545 82.5131 28.4658 84.8861 28.4658C86.7025 28.4658 87.8891 27.499 88.2406 26.459L88.2699 26.3564H91.683L91.6391 26.5176C91.1557 28.9053 88.8705 31.3076 84.8129 31.3076ZM84.6811 18.0068C82.7475 18.0068 81.2973 19.3105 81.0043 21.6982H88.2846C88.0209 19.2373 86.6146 18.0068 84.6811 18.0068ZM103.331 31V13.041H97.0027V9.8623H113.409V13.041H107.096V31H103.331ZM115.666 13.2461C114.523 13.2461 113.63 12.3379 113.63 11.2539C113.63 10.1406 114.523 9.24707 115.666 9.24707C116.809 9.24707 117.688 10.1406 117.688 11.2539C117.688 12.3379 116.809 13.2461 115.666 13.2461ZM113.835 31V15.4727H117.482V31H113.835ZM119.388 31V15.4727H123.035V17.9043H123.109C123.914 16.2344 125.496 15.1504 127.855 15.1504C131.268 15.1504 133.216 17.3477 133.216 20.9512V31H129.569V21.6836C129.569 19.4717 128.543 18.2266 126.463 18.2266C124.368 18.2266 123.035 19.75 123.035 21.9912V31H119.388ZM136.967 36.1562C136.264 36.1562 135.532 36.0684 135.092 35.9951V33.2119C135.371 33.2705 135.795 33.3438 136.308 33.3438C137.7 33.3438 138.476 32.9482 138.945 31.6445L139.164 31.0146L133.583 15.4727H137.568L141.201 27.8945H141.303L144.951 15.4727H148.788L143.207 31.5273C142.021 34.9404 140.204 36.1562 136.967 36.1562ZM154.562 31V9.8623H156.554V19.2666H168.918V9.8623H170.925V31H168.918V21.083H156.554V31H154.562ZM177.488 31.2783C174.485 31.2783 172.435 29.4766 172.435 26.7812V26.752C172.435 24.1592 174.397 22.5918 177.898 22.3574L182.645 22.0645V20.7461C182.645 18.5488 181.253 17.2158 178.88 17.2158C176.668 17.2158 175.218 18.2852 174.896 20.0137L174.866 20.1602H172.991L173.006 19.9844C173.299 17.3623 175.467 15.4873 178.909 15.4873C182.396 15.4873 184.578 17.4502 184.578 20.5703V31H182.645V28.2168H182.586C181.751 30.0332 179.744 31.2783 177.488 31.2783ZM174.412 26.7812C174.412 28.4512 175.818 29.5791 177.884 29.5791C180.55 29.5791 182.645 27.7041 182.645 25.2725V23.5879L178.133 23.8955C175.745 24.042 174.412 25.082 174.412 26.752V26.7812ZM192.797 31.2783C188.564 31.2783 185.868 28.2168 185.868 23.3682V23.3535C185.868 18.5635 188.608 15.4873 192.782 15.4873C196.327 15.4873 198.627 17.7871 199.008 20.4092L199.023 20.541H197.118L197.089 20.4238C196.664 18.6367 195.155 17.2158 192.782 17.2158C189.809 17.2158 187.861 19.6035 187.861 23.3828V23.3975C187.861 27.2354 189.838 29.5498 192.797 29.5498C195.068 29.5498 196.635 28.2461 197.089 26.3418L197.118 26.2246H199.037L199.023 26.3418C198.569 29.1836 196.122 31.2783 192.797 31.2783ZM200.445 31V9.8623H202.378V22.9434H202.437L209.908 15.7656H212.31L205.469 22.3281L212.456 31H210.171L204.078 23.5146L202.378 25.0967V31H200.445ZM218.434 31.2783C214.157 31.2783 211.505 28.2461 211.505 23.4268V23.4121C211.505 18.6367 214.201 15.4873 218.273 15.4873C222.345 15.4873 224.909 18.5342 224.909 23.0898V23.8516H213.468C213.527 27.4844 215.475 29.5498 218.478 29.5498C220.719 29.5498 222.272 28.4219 222.77 26.7666L222.799 26.6348H224.718L224.689 26.7812C224.162 29.3887 221.73 31.2783 218.434 31.2783ZM218.258 17.2158C215.666 17.2158 213.732 19.0762 213.498 22.3135H222.961C222.741 18.9883 220.866 17.2158 218.258 17.2158ZM226.302 31V15.7656H228.235V18.5049H228.294C228.836 16.6445 230.183 15.4873 232.029 15.4873C232.542 15.4873 232.996 15.5898 233.23 15.6631V17.5527C232.981 17.4502 232.439 17.3477 231.78 17.3477C229.612 17.3477 228.235 18.9883 228.235 21.5664V31H226.302ZM239.267 31.2783C235.81 31.2783 233.598 29.4326 233.305 26.7373L233.29 26.6055H235.224L235.253 26.7373C235.561 28.4951 236.981 29.6377 239.281 29.6377C241.581 29.6377 243.046 28.583 243.046 26.9863V26.9717C243.046 25.6533 242.313 24.9355 240.277 24.4521L237.978 23.8955C235.106 23.207 233.729 21.9473 233.729 19.8379V19.8232C233.729 17.2891 235.971 15.4873 239.149 15.4873C242.401 15.4873 244.481 17.377 244.73 19.999L244.745 20.1602H242.885L242.87 20.0576C242.621 18.2852 241.273 17.1279 239.149 17.1279C237.084 17.1279 235.707 18.1973 235.707 19.75V19.7646C235.707 20.9805 236.527 21.7568 238.534 22.2402L240.834 22.7822C243.866 23.5146 245.023 24.7012 245.023 26.8398V26.8545C245.023 29.4473 242.606 31.2783 239.267 31.2783Z" fill="white"/>
<path fill-rule="evenodd" clip-rule="evenodd" d="M33.488 15.2453C33.4346 15.0914 33.3454 14.9458 33.223 14.8234L18.2385 0.193624C17.8009 -0.2471 17.67 1.61211 17.6826 2.39935C17.6941 3.10595 17.6794 4.8207 18.3923 5.6854C20.1019 7.75817 28.037 15.0736 30.3265 17.2834V34.6256H21.1183C21.1717 31.953 21.2011 27.4358 21.0315 26.1921C20.9132 25.3233 19.7742 24.5873 19.2926 24.2167C18.7252 23.7802 17.5664 23.374 17.5664 23.6242V36.9716C17.5664 37.5933 18.0699 38.0968 18.6918 38.0968H20.9425C20.9833 38.0968 21.0241 38.095 21.0639 38.0907H31.3692C31.4257 38.095 31.4831 38.0968 31.5418 38.0968C32.7833 38.0968 33.7925 37.0889 33.7925 35.8461V16.3748C33.7925 15.9634 33.6816 15.5771 33.488 15.2453Z" fill="white"/>
<path fill-rule="evenodd" clip-rule="evenodd" d="M30.2085 1.81762C30.2085 1.5634 30.0027 1.35742 29.7496 1.35742H24.8646C24.6113 1.35742 24.4055 1.5634 24.4055 1.81762V3.59151C24.4055 3.84574 24.6113 4.05172 24.8646 4.05172H29.7496C30.0027 4.05172 30.2085 3.84574 30.2085 3.59151V1.81762Z" fill="white"/>
<path fill-rule="evenodd" clip-rule="evenodd" d="M25.1409 6.15264V2.10063C25.1409 1.69048 25.4726 1.35742 25.8871 1.35742H28.7473C29.1617 1.35742 29.4933 1.69048 29.4933 2.10063V10.4026L25.1409 6.15264Z" fill="white"/>
<path fill-rule="evenodd" clip-rule="evenodd" d="M28.7546 36.0349C28.7546 35.3589 28.2053 34.8047 27.5274 34.8047H25.0731C24.3964 34.8047 23.8459 35.3589 23.8459 36.0349V38.8059C23.8459 39.4816 24.3964 40.0358 25.0731 40.0358H27.5274C28.2053 40.0358 28.7546 39.4816 28.7546 38.8059V36.0349Z" fill="white"/>
<path fill-rule="evenodd" clip-rule="evenodd" d="M10.8034 36.0349C10.8034 35.3589 10.2541 34.8047 9.57618 34.8047H7.12189C6.44525 34.8047 5.89478 35.3589 5.89478 36.0349V38.8059C5.89478 39.4816 6.44525 40.0358 7.12189 40.0358H9.57618C10.2541 40.0358 10.8034 39.4816 10.8034 38.8059V36.0349Z" fill="white"/>
<path fill-rule="evenodd" clip-rule="evenodd" d="M0.787582 15.2453C0.840956 15.0914 0.929902 14.9458 1.05241 14.8234L16.037 0.193624C16.4746 -0.2471 16.6054 1.61211 16.5929 2.39935C16.5814 3.10595 16.596 4.8207 15.8831 5.6854C14.1736 7.75817 6.23851 15.0736 3.94908 17.2834V34.6256H13.1571C13.1037 31.953 13.0744 27.4358 13.244 26.1921C13.3623 25.3233 14.5013 24.5873 14.9828 24.2167C15.5502 23.7802 16.709 23.374 16.709 23.6242V36.9716C16.709 37.5933 16.2055 38.0968 15.5837 38.0968H13.333C13.2921 38.0968 13.2513 38.095 13.2116 38.0907H2.90636C2.84984 38.095 2.79225 38.0968 2.73363 38.0968C1.49207 38.0968 0.48291 37.0889 0.48291 35.8461V16.3748C0.48291 15.9634 0.593902 15.5771 0.787582 15.2453Z" fill="white"/>
</svg>
