<?xml version="1.0" encoding="UTF-8" standalone="no"?>
<!DOCTYPE svg PUBLIC "-//W3C//DTD SVG 1.1//EN" "http://www.w3.org/Graphics/SVG/1.1/DTD/svg11.dtd">
<svg width="100%" height="100%" viewBox="0 0 455 399" version="1.1" xmlns="http://www.w3.org/2000/svg" xmlns:xlink="http://www.w3.org/1999/xlink" xml:space="preserve" xmlns:serif="http://www.serif.com/" style="fill-rule:evenodd;clip-rule:evenodd;stroke-linecap:round;stroke-linejoin:round;stroke-miterlimit:1.5;">
    <g transform="matrix(1,0,0,1,-19821,-4780)">
        <g id="Plan-de-travail8" serif:id="Plan de travail8" transform="matrix(1.2069,0,0,1.04178,9680.66,1629.67)">
            <rect x="8402" y="3024" width="377" height="383" style="fill:none;"/>
            <clipPath id="_clip1">
                <rect x="8402" y="3024" width="377" height="383"/>
            </clipPath>
            <g clip-path="url(#_clip1)">
                <g transform="matrix(1.28818,0,0,0.958936,-17573.1,-14797.8)">
                    <g transform="matrix(1.00246,0,0,3.25148,-551.407,7517.32)">
                        <g transform="matrix(0.811163,0,0,0.351579,20022.2,2722.4)">
                            <path d="M978.828,1985.54C1043.68,1985.54 1082.21,2012.39 1082.21,2108.43C1082.21,2127.81 1095.66,2117.85 1090.52,2134.44C1087.09,2145.47 1083.14,2167.34 1079.47,2176.93C1061.31,2224.32 1001.06,2261.74 973.291,2261.74C947.913,2261.74 896.351,2225.89 880.585,2182.71C876.2,2170.7 871.534,2145.87 867.807,2131.42C863.558,2114.95 873.185,2126.09 873.185,2107C873.185,2010.97 913.978,1985.54 978.828,1985.54Z" style="fill:rgb(229,186,157);"/>
                        </g>
                        <g transform="matrix(0.679374,0,0,0.325644,6040.82,-1925.3)">
                            <g transform="matrix(1,0,0,1.001,-3446,-86.5539)">
                                <path d="M25143,16726C25143,16726 25157.8,16732.9 25166,16735.1C25175.5,16737.6 25183.8,16739.3 25193,16739.1C25200.2,16739 25214.2,16736.5 25221,16734.1C25228,16731.6 25242,16726 25242,16726L25192,16723L25143,16726Z" style="fill:rgb(151,65,62);"/>
                            </g>
                            <g transform="matrix(1,0,0,1.001,-3446,-86.5539)">
                                <path d="M25170.4,16717.8C25172.3,16716.6 25177.3,16715.8 25179.7,16715.8C25182.8,16715.8 25189.4,16717.1 25191.5,16719.1C25193.6,16717.1 25200.2,16715.8 25203.3,16715.8C25205.1,16715.8 25212.7,16717.4 25213.6,16717.8C25220.7,16721 25243,16726 25243,16726L25193,16727.9L25193,16728L25192,16728L25191,16728L25191,16727.9L25141,16726C25141,16726 25163.3,16721 25170.4,16717.8C25170.4,16717.8 25170.4,16717.8 25170.4,16717.8Z" style="fill:rgb(174,78,73);"/>
                            </g>
                        </g>
                        <g transform="matrix(0.953258,0,0,0.457383,10970.4,1212.2)">
                            <path d="M10384.8,4937.47C10384.8,4937.47 10388.1,4938.57 10390.8,4937.61C10392.4,4937.03 10393.8,4935.74 10394,4933.01C10394,4932.98 10394,4932.96 10394,4932.96C10394,4932.95 10394,4932.97 10394,4932.99C10393.6,4934.95 10392.7,4936.07 10391.6,4936.68C10389,4938.15 10385.2,4936.53 10385.2,4936.53C10384.9,4936.43 10384.6,4936.56 10384.5,4936.82C10384.4,4937.08 10384.6,4937.38 10384.8,4937.47Z" style="fill:rgb(18,12,12);"/>
                        </g>
                        <g transform="matrix(0.953258,0,0,0.457383,10967.5,1211.75)">
                            <path d="M10384.8,4937.47C10384.8,4937.47 10388.1,4938.57 10390.8,4937.61C10392.4,4937.03 10393.8,4935.74 10394,4933.01C10394,4932.98 10394,4932.96 10394,4932.96C10394,4932.95 10394,4932.97 10394,4932.99C10393.6,4934.95 10392.7,4936.07 10391.6,4936.68C10389,4938.15 10385.2,4936.53 10385.2,4936.53C10384.9,4936.43 10384.6,4936.56 10384.5,4936.82C10384.4,4937.08 10384.6,4937.38 10384.8,4937.47Z" style="fill:rgb(18,12,12);"/>
                        </g>
                        <g transform="matrix(0.953258,0,0,0.457383,10965.6,1211.29)">
                            <path d="M10384.8,4937.63C10384.8,4937.63 10388.1,4938.71 10390.8,4937.69C10392.4,4937.09 10393.8,4935.78 10394.1,4933.01C10394.1,4932.98 10394,4932.95 10394,4932.94C10394,4932.94 10393.9,4932.96 10393.9,4932.99C10393.6,4934.92 10392.7,4936.03 10391.6,4936.61C10389,4938.03 10385.2,4936.37 10385.2,4936.37C10384.9,4936.24 10384.5,4936.42 10384.4,4936.76C10384.2,4937.11 10384.4,4937.5 10384.8,4937.63Z" style="fill:rgb(18,12,12);"/>
                        </g>
                        <g transform="matrix(-0.094575,0,0,0.0510759,21554.7,2588.12)">
                            <path d="M7195.17,17312.8C7163.46,17301.4 7323.82,17207.9 7418.07,17207.9C7512.32,17207.9 7650.22,17307.3 7640.97,17312.8C7614.51,17328.5 7495.39,17254.4 7409.63,17254.4C7323.87,17254.4 7202.74,17315.6 7195.17,17312.8Z" style="fill:rgb(18,12,12);"/>
                        </g>
                        <g transform="matrix(-0.953258,0,0,0.457383,30659.1,1212.2)">
                            <path d="M10385.2,4936.53C10385.2,4936.53 10389,4938.15 10391.6,4936.68C10392.7,4936.07 10393.6,4934.95 10394,4932.99C10394,4932.97 10394,4932.95 10394,4932.96C10394,4932.96 10394,4932.98 10394,4933.01C10393.8,4935.74 10392.4,4937.03 10390.8,4937.61C10388.1,4938.57 10384.8,4937.47 10384.8,4937.47C10384.6,4937.38 10384.4,4937.08 10384.5,4936.82C10384.6,4936.56 10384.9,4936.43 10385.2,4936.53Z" style="fill:rgb(18,12,12);"/>
                        </g>
                        <g transform="matrix(-0.953258,0,0,0.457383,30662,1211.75)">
                            <path d="M10385.2,4936.53C10385.2,4936.53 10389,4938.15 10391.6,4936.68C10392.7,4936.07 10393.6,4934.95 10394,4932.99C10394,4932.97 10394,4932.95 10394,4932.96C10394,4932.96 10394,4932.98 10394,4933.01C10393.8,4935.74 10392.4,4937.03 10390.8,4937.61C10388.1,4938.57 10384.8,4937.47 10384.8,4937.47C10384.6,4937.38 10384.4,4937.08 10384.5,4936.82C10384.6,4936.56 10384.9,4936.43 10385.2,4936.53Z" style="fill:rgb(18,12,12);"/>
                        </g>
                        <g transform="matrix(-0.953258,0,0,0.457383,30663.9,1211.29)">
                            <path d="M10385.2,4936.37C10385.2,4936.37 10389,4938.03 10391.6,4936.61C10392.7,4936.03 10393.6,4934.92 10393.9,4932.99C10393.9,4932.96 10394,4932.94 10394,4932.94C10394,4932.95 10394.1,4932.98 10394.1,4933.01C10393.8,4935.78 10392.4,4937.09 10390.8,4937.69C10388.1,4938.71 10384.8,4937.63 10384.8,4937.63C10384.4,4937.5 10384.2,4937.11 10384.4,4936.76C10384.5,4936.42 10384.9,4936.24 10385.2,4936.37Z" style="fill:rgb(18,12,12);"/>
                        </g>
                        <g transform="matrix(0.094575,0,0,0.0510759,20074.8,2588.12)">
                            <path d="M7195.17,17312.8C7163.46,17301.4 7323.82,17207.9 7418.07,17207.9C7512.32,17207.9 7650.22,17307.3 7640.97,17312.8C7614.51,17328.5 7495.39,17254.4 7409.63,17254.4C7323.87,17254.4 7202.74,17315.6 7195.17,17312.8Z" style="fill:rgb(18,12,12);"/>
                        </g>
                    </g>
                    <g transform="matrix(-0.594703,-0.0454631,-0.0292129,0.925516,36180.6,16514.9)">
                        <path d="M26389,3744C26389,3744 26404.4,3726.6 26415,3725C26427.2,3723.17 26452.3,3730.5 26462,3733C26466.2,3734.09 26469.3,3734.9 26470.9,3737.74C26472.6,3740.57 26471.8,3742.53 26469.9,3744.53C26468.1,3746.53 26464.4,3746.03 26461.1,3745.5C26455.7,3744.67 26446.4,3740.79 26439.1,3738.5C26431.6,3736.17 26424.1,3734.87 26416.1,3734.71C26407.6,3734.54 26389,3744 26389,3744Z" style="fill:rgb(115,50,22);"/>
                    </g>
                    <g transform="matrix(0.594703,-0.0454631,0.0292129,0.925516,4450.23,16514.9)">
                        <path d="M26389,3744C26389,3744 26404.4,3726.6 26415,3725C26427.2,3723.17 26452.3,3730.5 26462,3733C26466.2,3734.09 26469.3,3734.9 26470.9,3737.74C26472.6,3740.57 26471.8,3742.53 26469.9,3744.53C26468.1,3746.53 26464.4,3746.03 26461.1,3745.5C26455.7,3744.67 26446.4,3740.79 26439.1,3738.5C26431.6,3736.17 26424.1,3734.87 26416.1,3734.71C26407.6,3734.54 26389,3744 26389,3744Z" style="fill:rgb(115,50,22);"/>
                    </g>
                    <g transform="matrix(1.03741,0.208109,-0.133723,1.61448,-8139.84,6785.48)">
                        <path d="M27806,3813C27805,3808.33 27816.5,3780.33 27818,3783C27819.3,3785.34 27819.7,3789 27822,3790C27824.3,3791 27830,3790.5 27832,3789C27834,3787.5 27833.3,3781 27834,3781C27834.7,3781 27836.2,3786.83 27836,3789C27835.9,3790.94 27834.2,3792.5 27833,3794C27831.8,3795.49 27829.2,3796.17 27829,3798C27828.8,3799.83 27831,3802.83 27832,3805C27832.9,3807.03 27833.5,3809.67 27835,3811C27836.5,3812.33 27838.9,3812.53 27841,3813C27843.2,3813.5 27846.2,3813.17 27848,3814C27849.7,3814.78 27851.2,3816.33 27852,3818C27852.8,3819.67 27853.1,3821.98 27853,3824C27852.8,3826.67 27852.2,3831 27851,3834C27849.9,3836.93 27846.8,3839 27846,3842C27845.2,3845 27845.2,3849.33 27846,3852C27846.8,3854.49 27849.9,3855.63 27851,3858C27852.7,3861.67 27854.7,3869.5 27856,3874C27857.1,3877.64 27858.5,3881.83 27859,3885C27859.4,3887.63 27858.3,3890.67 27859,3893C27859.7,3895.31 27861.5,3897.09 27863,3899C27865.2,3901.83 27870.1,3905.64 27872,3910C27874,3914.67 27874.8,3922.33 27875,3927C27875.1,3930.72 27874.5,3938.67 27873,3938C27871.5,3937.33 27868.5,3927 27866,3923C27863.9,3919.6 27858.8,3912.83 27858,3914C27857.2,3915.17 27861.7,3926.67 27861,3930C27860.5,3932.64 27855.8,3932 27854,3934C27851.2,3937.17 27845.2,3945.17 27844,3949C27843.2,3951.72 27848.8,3957.67 27847,3957C27845.2,3956.33 27835.8,3949.67 27833,3945C27830.2,3940.36 27829.7,3932.5 27830,3929C27830.2,3926.65 27834.8,3926.35 27835,3924C27835.5,3918.83 27835.3,3905.17 27833,3898C27830.9,3891.41 27824.7,3886.86 27821,3881C27816.7,3874.17 27826.4,3852.95 27824,3844C27821.3,3834 27818.8,3831.33 27818.7,3824C27818.6,3821.31 27806.6,3815.63 27806,3813Z" style="fill:rgb(115,50,22);stroke:rgb(24,16,12);stroke-width:0.92px;"/>
                    </g>
                    <g transform="matrix(1.03741,0.208109,-0.133723,1.61448,-8139.84,6785.48)">
                        <path d="M27808,3825C27804.9,3818.4 27827.5,3811 27827,3814C27826.5,3817 27819.8,3819.67 27821,3822C27822.2,3824.33 27830.4,3824.88 27834,3828C27837.7,3831.17 27841.8,3837.33 27843,3841C27843.9,3843.93 27842.5,3847.67 27841,3850C27839.5,3852.33 27835.5,3853.17 27834,3855C27832.7,3856.63 27832.1,3858.9 27832,3861C27831.8,3863.5 27832.5,3867.83 27833,3870C27833.3,3871.45 27834.4,3872.64 27835,3874C27835.8,3875.83 27836.3,3879.14 27838,3881C27840,3883.17 27844.9,3884.07 27847,3887C27850.3,3891.67 27857.2,3903.5 27858,3909C27858.6,3913.13 27855.2,3917.26 27852,3920C27848.2,3923.33 27839.2,3926 27835,3929C27831.7,3931.35 27828.3,3934.83 27827,3938C27825.7,3941.07 27826.8,3944.67 27827,3948C27827.2,3951.5 27828,3959 27828,3959C27828,3959 27821.8,3953.72 27821,3950C27819.8,3944.5 27818,3932 27821,3926C27824,3920 27836.8,3919 27839,3914C27841.2,3909 27836.5,3900.33 27834,3896C27831.9,3892.3 27826.5,3891.45 27824,3888C27820,3882.5 27812,3869.5 27810,3863C27808.6,3858.49 27812.2,3853.71 27812,3849C27811.7,3842.67 27811.2,3831.67 27808,3825Z" style="fill:rgb(115,50,22);stroke:rgb(24,16,12);stroke-width:0.92px;"/>
                    </g>
                    <g transform="matrix(1.03741,0.208109,-0.133723,1.61448,-8139.84,6785.48)">
                        <path d="M27827,3941C27827.3,3937.67 27826.3,3933.87 27828,3931C27830,3927.67 27835.8,3923.67 27839,3921C27841.5,3918.85 27845.8,3918.1 27847,3915C27848.3,3911.67 27848.6,3905.38 27847,3901C27845.3,3896.5 27840.3,3892.37 27837,3888C27833.5,3883.33 27828.7,3881 27826,3873" style="fill:rgb(115,50,22);"/>
                        <path d="M27827.5,3941.05C27827.7,3938.74 27827.2,3936.22 27827.5,3933.94C27827.6,3932.97 27827.9,3932.05 27828.4,3931.21C27829,3930.16 27830,3929.04 27831.2,3927.91C27833.7,3925.5 27837.1,3923.08 27839.2,3921.26C27841,3919.79 27843.5,3918.96 27845.3,3917.59C27846.2,3916.93 27846.9,3916.14 27847.3,3915.11C27848,3913.33 27848.4,3910.72 27848.4,3908C27848.4,3905.55 27848,3903.02 27847.2,3900.92C27846.7,3899.45 27845.8,3898.03 27844.7,3896.62C27842.4,3893.7 27839.4,3890.86 27837.1,3887.91C27834.8,3884.88 27832,3882.84 27829.5,3879.59C27828.2,3877.85 27827,3875.76 27826.1,3872.98C27826.1,3872.94 27826,3872.92 27826,3872.93C27825.9,3872.95 27825.9,3872.99 27825.9,3873.02C27826.9,3875.83 27828,3877.95 27829.4,3879.71C27831.8,3882.99 27834.6,3885.05 27836.9,3888.1C27839.1,3891.07 27842.1,3893.94 27844.3,3896.88C27845.4,3898.26 27846.3,3899.65 27846.8,3901.08C27847.5,3903.14 27847.9,3905.61 27847.8,3908C27847.8,3910.64 27847.4,3913.17 27846.7,3914.89C27846.4,3915.81 27845.7,3916.5 27844.9,3917.09C27843.1,3918.45 27840.5,3919.27 27838.8,3920.74C27836.6,3922.53 27833.2,3924.94 27830.7,3927.34C27829.4,3928.51 27828.3,3929.68 27827.6,3930.79C27827.1,3931.72 27826.8,3932.75 27826.7,3933.83C27826.4,3936.12 27826.8,3938.65 27826.5,3940.95C27826.5,3941.21 27826.7,3941.43 27827,3941.46C27827.2,3941.48 27827.4,3941.3 27827.5,3941.05Z" style="fill:rgb(24,16,12);"/>
                    </g>
                    <g transform="matrix(1.03741,0.208109,-0.133723,1.61448,-8139.84,6785.48)">
                        <path d="M27842,3857C27842.3,3861 27841.8,3865.33 27843,3869C27844.2,3872.67 27847.2,3875.83 27849,3879C27850.7,3881.97 27852.7,3885.17 27854,3888C27855.2,3890.58 27855.6,3893.5 27857,3896C27859,3899.67 27863.3,3905.17 27866,3910C27868.8,3915 27871.3,3920.67 27874,3926" style="fill:rgb(115,50,22);"/>
                        <path d="M27841.5,3857.04C27841.8,3859.81 27841.6,3862.73 27841.9,3865.49C27842,3866.74 27842.2,3867.97 27842.6,3869.12C27843,3870.25 27843.5,3871.33 27844.1,3872.38C27845.5,3874.76 27847.4,3876.96 27848.7,3879.17C27849.7,3880.91 27850.8,3882.72 27851.8,3884.5C27852.5,3885.74 27853.2,3886.96 27853.7,3888.12C27854.6,3889.91 27855.1,3891.87 27855.7,3893.74C27856,3894.56 27856.4,3895.36 27856.8,3896.12C27858.4,3899.07 27861.5,3903.22 27864.1,3907.25C27864.7,3908.2 27865.3,3909.16 27865.9,3910.08C27866.7,3911.6 27867.6,3913.18 27868.4,3914.8C27870.3,3918.48 27872.1,3922.34 27873.9,3926.03C27874,3926.07 27874,3926.08 27874,3926.06C27874.1,3926.05 27874.1,3926 27874.1,3925.97C27872.2,3922.25 27870.5,3918.38 27868.6,3914.68C27867.8,3913.05 27867,3911.45 27866.1,3909.92C27865.6,3908.99 27865,3908.02 27864.4,3907.06C27861.9,3903.02 27858.8,3898.85 27857.2,3895.88C27856.8,3895.14 27856.5,3894.36 27856.2,3893.56C27855.6,3891.67 27855.1,3889.69 27854.3,3887.88C27853.7,3886.7 27853.1,3885.46 27852.4,3884.2C27851.4,3882.41 27850.3,3880.58 27849.3,3878.83C27848,3876.61 27846.2,3874.38 27844.8,3871.99C27844.2,3870.99 27843.7,3869.95 27843.4,3868.88C27843,3867.77 27842.8,3866.61 27842.7,3865.41C27842.5,3862.65 27842.7,3859.73 27842.5,3856.96C27842.4,3856.71 27842.2,3856.52 27842,3856.54C27841.7,3856.56 27841.5,3856.78 27841.5,3857.04Z" style="fill:rgb(24,16,12);"/>
                    </g>
                    <g transform="matrix(1.02352,0.335583,-0.215634,1.59287,-7267.58,3513.75)">
                        <path d="M27744,3645C27732.7,3643.17 27692,3646.17 27677,3651C27666.7,3654.33 27659.8,3666 27654,3674C27648.6,3681.47 27644.2,3690.03 27642,3699C27639.5,3709 27640.3,3724.5 27639,3734C27638,3741.45 27635.8,3748.83 27634,3756C27632.2,3763.05 27629.1,3769.8 27628,3777C27626.8,3785 27626.8,3798.5 27627,3804C27627.1,3806.11 27628.4,3807.97 27629,3810C27629.7,3812.33 27630.4,3815.32 27631,3818C27631.7,3820.83 27632.5,3824.17 27633,3827C27633.5,3829.65 27635.5,3837.32 27635.3,3840C27635,3844.17 27625,3858 27625,3858C27625,3858 27636.7,3848 27639,3846C27641.1,3844.16 27644,3842.64 27645,3840C27646.3,3836.5 27646.7,3830 27647,3825C27647.3,3820.01 27646,3814.33 27647,3810C27647.9,3805.93 27650.8,3799.5 27653,3799C27655.2,3798.5 27658.1,3804.03 27660,3807C27662.2,3810.33 27665,3815.33 27666,3819C27666.9,3822.22 27666.2,3825.67 27666,3829C27665.8,3832.5 27665.5,3837.33 27665,3840C27664.7,3841.76 27663.5,3848 27663.5,3848C27663.5,3848 27669.4,3839.68 27671,3836C27672.7,3832.17 27672.7,3826.67 27673,3822C27673.3,3817.35 27673.2,3812.17 27673,3808C27672.9,3804.32 27672.6,3800.64 27672,3797C27671.3,3792.83 27670.9,3787.38 27669,3783C27666.8,3778 27660.4,3773.14 27659,3767C27657.3,3759.5 27658.3,3747.64 27659,3738C27659.7,3728.17 27658.2,3716.89 27663,3708C27669,3696.83 27684.5,3678.5 27695,3671C27703.7,3664.8 27717.7,3664.5 27726,3663C27732.2,3661.88 27742,3665 27745,3662C27748,3659 27749.6,3645.91 27744,3645Z" style="fill:rgb(115,50,22);stroke:rgb(24,16,12);stroke-width:0.92px;"/>
                    </g>
                    <g transform="matrix(1.02352,0.335583,-0.215634,1.59287,-7267.58,3513.75)">
                        <path d="M27632,3838C27632,3838 27650.3,3839.5 27653,3838C27655.7,3836.5 27655.9,3832.16 27656,3829C27656.2,3825.33 27654.3,3820.37 27654,3816C27653.7,3811.5 27652.5,3805.33 27654,3802C27655.5,3798.71 27660,3797.5 27663,3796C27665.8,3794.59 27671.5,3788.37 27673,3787C27675,3785.17 27681,3784.33 27684,3782C27687,3779.67 27690.3,3776.5 27691,3773C27691.7,3769.5 27689.9,3764.66 27688,3761C27686,3757.17 27679.5,3753.67 27679,3750C27678.5,3746.33 27682.5,3741.5 27685,3739C27687.3,3736.68 27692.6,3737.96 27694,3735C27695.8,3731.17 27695.2,3722.32 27696,3716C27696.8,3709.33 27696.8,3699.33 27699,3695C27700.7,3691.67 27705.5,3691.41 27709,3690C27713.5,3688.17 27721.5,3685 27726,3684C27729.3,3683.28 27733.7,3684.67 27736,3684C27737.8,3683.48 27738.3,3680.89 27740,3680C27742.5,3678.67 27749.3,3678.67 27751,3676C27752.7,3673.33 27751.8,3667 27750,3664C27748.2,3661 27743.9,3658.29 27740,3658C27733.3,3657.5 27718,3659.33 27710,3661C27703.7,3662.31 27696.2,3664.17 27692,3668C27687.8,3671.83 27687.5,3679.83 27685,3684C27682.9,3687.44 27679.7,3690.83 27677,3693C27674.7,3694.88 27670.8,3694.62 27669,3697C27667,3699.67 27665.7,3704.84 27665,3709C27664.3,3713.17 27665,3718 27665,3722C27665,3725.67 27665.3,3729.35 27665,3733C27664.7,3736.83 27662.4,3740.99 27663,3745C27663.7,3749.33 27667.8,3755.17 27669,3759C27669.9,3761.89 27670.9,3765.11 27670,3768C27669,3771.33 27665.9,3775.77 27663,3779C27660,3782.33 27656,3785.83 27652,3788C27648,3790.16 27642.5,3789.83 27639,3792C27635.6,3794.11 27631.5,3797.17 27631,3801C27630.5,3804.83 27634,3811.5 27636,3815C27637.6,3817.87 27641,3819.83 27643,3822C27644.8,3823.91 27647.7,3826.17 27648,3828C27648.3,3829.83 27646.2,3831.48 27645,3833C27643.7,3834.67 27632,3838 27632,3838Z" style="fill:rgb(115,50,22);stroke:rgb(34,23,16);stroke-width:0.92px;"/>
                    </g>
                    <g transform="matrix(1.02352,0.335583,-0.215634,1.59287,-7267.58,3513.75)">
                        <path d="M27750,3649C27752.3,3647.64 27751.8,3642.94 27750,3641C27747.2,3638 27739.2,3632 27733,3631C27726.8,3630 27719.8,3635.13 27713,3635C27704.5,3634.83 27690.5,3628.33 27682,3630C27673.8,3631.6 27668.7,3641.67 27662,3645C27655.9,3648.07 27645.8,3646.5 27642,3650C27638.2,3653.5 27641.6,3661.24 27639,3666C27636.2,3671.17 27627.2,3676.17 27625,3681C27623.1,3685.27 27627.5,3691 27626,3695C27624.5,3699 27617,3701 27616,3705C27615,3709 27620,3714.67 27620,3719C27620,3723.22 27618.2,3728.5 27616,3731C27613.9,3733.39 27606.8,3733.17 27607,3734C27607.2,3734.83 27614.3,3736.83 27617,3736C27619.7,3735.17 27621.5,3731.33 27623,3729C27624.4,3726.87 27625.5,3721.17 27626,3722C27626.5,3722.83 27626.8,3731 27626,3734C27625.3,3736.51 27622.5,3738.17 27621,3740C27619.6,3741.65 27618.2,3743.22 27617,3745C27615,3748 27610.2,3753.67 27609,3758C27607.9,3762.2 27609.2,3767.83 27610,3771C27610.6,3773.33 27612.8,3774.94 27614,3777C27615.5,3779.5 27618,3782.83 27619,3786C27620,3789.17 27620.2,3792.65 27620,3796C27619.8,3799.67 27618.3,3804.5 27618,3808C27617.7,3810.99 27619.3,3814.29 27618,3817C27616.7,3819.83 27611.2,3821.67 27610,3825C27608.8,3828.33 27609.8,3834.17 27611,3837C27612,3839.41 27617,3842 27617,3842C27617,3842 27616.3,3836.5 27617,3834C27617.7,3831.5 27619.2,3828.33 27621,3827C27622.8,3825.67 27626.5,3827.85 27628,3826C27629.8,3823.67 27630.7,3817.17 27632,3813C27633.3,3808.98 27635.3,3805.16 27636,3801C27636.7,3796.83 27636.5,3792.31 27636,3788C27635.5,3783.67 27633,3779.45 27633,3775C27633,3770.5 27634.2,3765.42 27636,3761C27637.8,3756.5 27641.8,3751 27644,3748C27645.4,3746.09 27648.7,3745.34 27649,3743C27649.7,3737.67 27648.5,3723 27648,3716C27647.6,3710.97 27644.9,3705.91 27646,3701C27647.2,3696 27651.2,3689.33 27655,3686C27658.7,3682.75 27664.5,3683 27669,3681C27673.5,3679 27678,3676.86 27682,3674C27686.7,3670.67 27692,3663.83 27697,3661C27701.5,3658.45 27707,3658.14 27712,3657C27717.2,3655.83 27722.7,3655.12 27728,3654C27734.3,3652.67 27746.3,3651.17 27750,3649Z" style="fill:rgb(115,50,22);stroke:rgb(24,16,12);stroke-width:0.92px;"/>
                    </g>
                    <g transform="matrix(1.02352,0.335583,-0.215634,1.59287,-7267.58,3513.75)">
                        <path d="M27751,3665C27750.8,3661.5 27750.8,3654.17 27749,3651C27747.3,3648.03 27742.8,3646 27740,3646C27737.2,3646 27735.1,3650.84 27732,3651C27728.7,3651.17 27724.1,3647.88 27720,3647C27714.5,3645.83 27704.8,3643.5 27699,3644C27693.9,3644.43 27687.2,3647.5 27685,3650C27683,3652.28 27687.8,3656.57 27686,3659C27684.2,3661.5 27676.3,3662 27674,3665C27671.7,3668 27672.8,3673.83 27672,3677C27671.4,3679.45 27670.5,3682.17 27669,3684C27667.5,3685.83 27664.6,3686.18 27663,3688C27660,3691.5 27652.5,3699.17 27651,3705C27649.5,3710.83 27654.2,3718.33 27654,3723C27653.9,3726.59 27651,3729.67 27650,3733C27649,3736.26 27647.2,3739.7 27648,3743C27648.8,3746.33 27654.3,3749.33 27655,3753C27655.7,3756.67 27653.2,3761.67 27652,3765C27651,3767.81 27646.5,3773.5 27648,3773C27649.5,3772.5 27658.5,3765.83 27661,3762C27663.2,3758.6 27663.2,3754.05 27663,3750C27662.8,3745.67 27659,3740.67 27660,3736C27661,3731.17 27667.5,3726.5 27669,3721C27670.5,3715.5 27666.2,3707.83 27669,3703C27671.8,3698.17 27682.3,3695.17 27686,3692C27688.4,3689.95 27690.1,3687.02 27691,3684C27692,3680.5 27689.2,3674.31 27692,3671C27694.8,3667.67 27703.3,3664.67 27708,3664C27712.1,3663.42 27715.9,3667.7 27720,3667C27724.8,3666.17 27732.8,3659.5 27737,3659C27740.1,3658.62 27742.8,3661.83 27745,3664C27747.2,3666.17 27749,3671.83 27750,3672C27751,3672.17 27751.1,3667.35 27751,3665Z" style="fill:rgb(115,50,22);stroke:rgb(24,16,12);stroke-width:0.92px;"/>
                    </g>
                    <g transform="matrix(1.02352,0.335583,-0.215634,1.59287,-7267.58,3513.75)">
                        <path d="M27656,3829C27653.7,3825.33 27650.2,3822.17 27649,3818C27647.8,3813.83 27648.3,3807.83 27649,3804C27649.6,3800.77 27650.7,3797.17 27653,3795C27655.3,3792.83 27659.9,3792.77 27663,3791C27666.8,3788.83 27673.2,3786.17 27676,3782C27678.8,3777.83 27680.2,3770.67 27680,3766C27679.8,3761.67 27676,3757.83 27675,3754C27674.1,3750.44 27673.5,3745.83 27674,3743C27674.4,3740.63 27676.7,3739 27678,3737" style="fill:rgb(115,50,22);"/>
                        <path d="M27656.4,3828.75C27654.8,3826.21 27652.6,3823.91 27651,3821.35C27650.3,3820.26 27649.7,3819.12 27649.4,3817.89C27648.9,3816.27 27648.7,3814.36 27648.7,3812.41C27648.6,3809.43 27649,3806.35 27649.3,3804.06C27649.7,3802.18 27650.2,3800.17 27651,3798.39C27651.6,3797.19 27652.3,3796.09 27653.2,3795.23C27653.9,3794.55 27654.9,3794.09 27655.9,3793.71C27658.2,3792.88 27661,3792.44 27663.1,3791.23C27665.4,3789.91 27668.7,3788.41 27671.5,3786.5C27673.3,3785.23 27675,3783.79 27676.2,3782.11C27677.6,3780.03 27678.6,3777.21 27679.3,3774.32C27679.9,3771.38 27680.2,3768.37 27680.1,3765.99C27680.1,3764.68 27679.7,3763.41 27679.1,3762.17C27677.9,3759.33 27675.8,3756.66 27675.1,3753.98C27674.5,3751.96 27674.1,3749.61 27673.9,3747.43C27673.8,3745.78 27673.8,3744.23 27674,3743.01C27674.2,3742.28 27674.5,3741.62 27674.8,3741C27675.7,3739.6 27677.1,3738.39 27678,3737C27677.1,3738.38 27675.7,3739.59 27674.8,3740.98C27674.4,3741.6 27674.1,3742.26 27674,3742.99C27673.7,3744.22 27673.7,3745.78 27673.8,3747.44C27674,3749.62 27674.4,3751.99 27674.9,3754.02C27675.6,3756.7 27677.7,3759.4 27678.9,3762.26C27679.5,3763.47 27679.8,3764.72 27679.9,3766.01C27679.9,3768.35 27679.6,3771.34 27678.9,3774.25C27678.3,3777.09 27677.2,3779.85 27675.8,3781.89C27674.7,3783.52 27673.1,3784.91 27671.2,3786.13C27668.4,3788 27665.2,3789.48 27662.9,3790.77C27660.8,3791.95 27658,3792.35 27655.7,3793.15C27654.6,3793.55 27653.6,3794.05 27652.8,3794.77C27651.8,3795.68 27651,3796.84 27650.4,3798.12C27649.5,3799.93 27649,3802 27648.7,3803.94C27648.2,3806.27 27647.9,3809.39 27647.9,3812.43C27647.9,3814.44 27648.1,3816.42 27648.6,3818.11C27649,3819.42 27649.6,3820.63 27650.3,3821.79C27651.8,3824.37 27654,3826.69 27655.6,3829.25C27655.7,3829.46 27656,3829.53 27656.2,3829.39C27656.5,3829.25 27656.5,3828.97 27656.4,3828.75Z" style="fill:rgb(24,16,12);"/>
                    </g>
                    <g transform="matrix(1.02352,0.335583,-0.215634,1.59287,-7267.58,3513.75)">
                        <path d="M27674,3699C27678.3,3697.33 27683.7,3695.33 27687,3694C27689.4,3693.06 27691.9,3692.48 27694,3691C27696.3,3689.33 27699.5,3686.5 27701,3684C27702.4,3681.64 27701.5,3678.17 27703,3676C27704.5,3673.83 27707.7,3671.83 27710,3671C27712.2,3670.22 27714.7,3671 27717,3671" style="fill:rgb(115,50,22);"/>
                        <path d="M27674.2,3699.43C27677,3698.3 27680.4,3697.01 27683.2,3695.88C27684.7,3695.31 27686,3694.78 27687.1,3694.32C27688.8,3693.65 27690.5,3693.15 27692.1,3692.4C27692.8,3692.07 27693.5,3691.69 27694.2,3691.23C27695.6,3690.22 27697.2,3688.79 27698.7,3687.27C27699.7,3686.22 27700.6,3685.13 27701.2,3684.1C27702.3,3682.22 27701.9,3679.64 27702.5,3677.55C27702.6,3677.02 27702.8,3676.52 27703.1,3676.07C27703.8,3675.01 27705,3673.97 27706.2,3673.1C27707.5,3672.21 27708.9,3671.48 27710,3671.06C27710.7,3670.81 27711.4,3670.71 27712.1,3670.69C27713.7,3670.65 27715.4,3671.01 27717,3671C27715.4,3670.99 27713.7,3670.59 27712.1,3670.61C27711.4,3670.62 27710.7,3670.71 27710,3670.95C27708.8,3671.36 27707.4,3672.07 27706.1,3672.95C27704.8,3673.81 27703.7,3674.85 27702.9,3675.93C27702.6,3676.39 27702.3,3676.92 27702.2,3677.48C27701.6,3679.52 27702,3682.06 27700.8,3683.9C27700.1,3685.13 27698.9,3686.43 27697.6,3687.64C27696.4,3688.85 27695,3689.95 27693.8,3690.77C27693,3691.34 27692.1,3691.77 27691.2,3692.14C27689.8,3692.7 27688.3,3693.13 27686.9,3693.68C27685.8,3694.11 27684.4,3694.62 27683,3695.16C27680.1,3696.25 27676.7,3697.48 27673.8,3698.57C27673.6,3698.66 27673.5,3698.93 27673.6,3699.17C27673.7,3699.4 27673.9,3699.52 27674.2,3699.43Z" style="fill:rgb(24,16,12);"/>
                    </g>
                    <g transform="matrix(1.02352,0.335583,-0.215634,1.59287,-7267.58,3513.75)">
                        <path d="M27621,3827C27623,3824.67 27625.8,3822.5 27627,3820C27628.1,3817.57 27627.7,3814.68 27628,3812C27628.3,3808.5 27628.8,3802.67 27629,3799C27629.1,3796 27629.3,3792.99 27629,3790C27628.7,3786.17 27627.2,3780.71 27627,3776C27626.8,3770.83 27626.2,3764.33 27628,3759C27629.8,3753.67 27635.3,3747.67 27638,3744C27639.8,3741.51 27642.8,3739.84 27644,3737C27645.5,3733.33 27646,3727 27647,3722" style="fill:rgb(115,50,22);"/>
                        <path d="M27621.4,3827.3C27622.7,3825.7 27624.5,3824.18 27625.8,3822.58C27626.4,3821.81 27627,3821.01 27627.4,3820.18C27627.7,3819.4 27628,3818.58 27628.1,3817.73C27628.4,3815.88 27628.2,3813.91 27628.4,3812.04C27628.6,3809.95 27628.8,3807.03 27629,3804.23C27629.2,3802.34 27629.3,3800.5 27629.3,3799.01C27629.4,3797.21 27629.5,3795.4 27629.5,3793.6C27629.5,3792.39 27629.4,3791.18 27629.3,3789.97C27629.1,3787.25 27628.2,3783.7 27627.7,3780.18C27627.5,3778.76 27627.3,3777.35 27627.2,3775.99C27627.1,3772.88 27626.8,3769.28 27627,3765.74C27627.1,3763.43 27627.5,3761.16 27628.2,3759.06C27628.9,3756.99 27630.1,3754.82 27631.5,3752.73C27633.8,3749.42 27636.5,3746.3 27638.1,3744.06C27639.3,3742.33 27641.2,3740.99 27642.6,3739.38C27643.2,3738.67 27643.7,3737.9 27644.1,3737.02C27644.6,3735.79 27644.9,3734.26 27645.3,3732.59C27645.9,3729.25 27646.3,3725.33 27647,3722C27646.3,3725.33 27645.9,3729.24 27645.2,3732.57C27644.8,3734.24 27644.4,3735.76 27643.9,3736.98C27643.6,3737.84 27643.1,3738.59 27642.4,3739.28C27641,3740.89 27639.2,3742.22 27637.9,3743.94C27636.3,3746.18 27633.6,3749.27 27631.3,3752.56C27629.8,3754.67 27628.6,3756.86 27627.8,3758.94C27627.1,3761.07 27626.8,3763.38 27626.6,3765.72C27626.4,3769.26 27626.7,3772.88 27626.8,3776.01C27626.8,3777.38 27626.9,3778.82 27627.2,3780.26C27627.7,3783.77 27628.5,3787.31 27628.7,3790.03C27628.8,3791.21 27628.8,3792.41 27628.8,3793.6C27628.8,3795.39 27628.8,3797.19 27628.7,3798.99C27628.6,3800.46 27628.5,3802.29 27628.3,3804.18C27628.1,3806.97 27627.8,3809.88 27627.6,3811.96C27627.5,3813.55 27627.5,3815.22 27627.4,3816.83C27627.3,3817.87 27627.1,3818.88 27626.6,3819.82C27626.3,3820.58 27625.7,3821.31 27625.1,3822.02C27623.8,3823.61 27622,3825.12 27620.7,3826.7C27620.5,3826.89 27620.5,3827.18 27620.7,3827.35C27620.9,3827.52 27621.2,3827.49 27621.4,3827.3Z" style="fill:rgb(24,16,12);"/>
                    </g>
                    <g transform="matrix(1.02352,0.335583,-0.215634,1.59287,-7267.58,3513.75)">
                        <path d="M27626,3722C27626.3,3718.67 27626.7,3714.67 27627,3712C27627.3,3709.99 27627,3707.5 27628,3706C27629,3704.5 27631.6,3704.37 27633,3703C27634.8,3701.17 27638,3697.33 27639,3695C27639.8,3693.16 27639.1,3691 27639,3689C27638.8,3686.5 27636.8,3682.75 27638,3680C27639.5,3676.67 27645,3671.17 27648,3669C27650.2,3667.39 27653.3,3667.67 27656,3667" style="fill:rgb(115,50,22);"/>
                        <path d="M27626.5,3722.05C27626.7,3719.81 27626.9,3717.27 27627.1,3715.04C27627.2,3713.95 27627.3,3712.93 27627.4,3712.05C27627.6,3710.69 27627.5,3709.12 27627.7,3707.78C27627.8,3707.19 27628,3706.65 27628.3,3706.2C27628.5,3705.91 27628.7,3705.68 27629,3705.48C27629.6,3705.09 27630.4,3704.81 27631.1,3704.5C27631.9,3704.17 27632.7,3703.79 27633.2,3703.22C27634.3,3702.13 27635.8,3700.35 27637.1,3698.58C27638,3697.32 27638.8,3696.08 27639.2,3695.1C27639.6,3694.31 27639.6,3693.47 27639.6,3692.61C27639.6,3691.41 27639.3,3690.17 27639.2,3688.99C27639.1,3687.24 27638,3684.89 27637.8,3682.69C27637.7,3681.77 27637.8,3680.87 27638.1,3680.06C27638.7,3678.69 27640,3676.94 27641.5,3675.21C27643.7,3672.75 27646.3,3670.32 27648,3669.04C27648.7,3668.55 27649.5,3668.23 27650.3,3668.01C27652.1,3667.5 27654.2,3667.47 27656,3667C27654.1,3667.45 27652.1,3667.45 27650.2,3667.93C27649.4,3668.15 27648.7,3668.46 27648,3668.96C27646.2,3670.22 27643.6,3672.62 27641.4,3675.06C27639.8,3676.8 27638.5,3678.55 27637.9,3679.94C27637.5,3680.79 27637.4,3681.74 27637.5,3682.72C27637.7,3684.92 27638.7,3687.27 27638.8,3689.01C27638.9,3690.19 27639.1,3691.43 27639.1,3692.63C27639.2,3693.42 27639.1,3694.19 27638.8,3694.9C27638.4,3695.85 27637.6,3697.04 27636.7,3698.25C27635.4,3699.97 27633.9,3701.72 27632.8,3702.78C27632.3,3703.28 27631.6,3703.6 27630.9,3703.89C27630.1,3704.21 27629.3,3704.49 27628.7,3704.9C27628.3,3705.15 27627.9,3705.44 27627.7,3705.8C27627.4,3706.32 27627.1,3706.96 27627,3707.65C27626.7,3709 27626.8,3710.58 27626.6,3711.95C27626.5,3712.83 27626.4,3713.86 27626.3,3714.96C27626,3717.19 27625.8,3719.72 27625.5,3721.95C27625.5,3722.21 27625.7,3722.43 27626,3722.46C27626.2,3722.48 27626.4,3722.3 27626.5,3722.05Z" style="fill:rgb(24,16,12);"/>
                    </g>
                    <g transform="matrix(1.02352,0.335583,-0.215634,1.59287,-7267.58,3513.75)">
                        <path d="M27718,3634C27713.7,3635.33 27708.7,3637.67 27705,3638C27701.9,3638.28 27699.1,3636.16 27696,3636C27692.8,3635.83 27689.1,3635.76 27686,3637C27682.7,3638.33 27678.2,3642.17 27676,3644C27674.7,3645.08 27674,3646.67 27673,3648" style="fill:rgb(115,50,22);"/>
                        <path d="M27717.9,3633.56C27715,3634.48 27711.8,3635.85 27708.9,3636.77C27707.5,3637.21 27706.2,3637.55 27705,3637.66C27704.1,3637.76 27703.2,3637.63 27702.3,3637.41C27700.2,3636.89 27698.2,3635.84 27696,3635.75C27694.1,3635.67 27692,3635.62 27689.9,3635.87C27688.5,3636.04 27687.2,3636.34 27685.9,3636.85C27684.6,3637.39 27683.2,3638.31 27681.7,3639.35C27679.5,3640.95 27677.3,3642.84 27676,3643.97C27675.6,3644.3 27675.3,3644.67 27674.9,3645.08C27674.2,3646 27673.7,3647.06 27673,3648C27673.7,3647.08 27674.3,3646.03 27675,3645.12C27675.3,3644.72 27675.6,3644.36 27676,3644.03C27677.4,3642.93 27679.6,3641.1 27681.8,3639.53C27683.3,3638.54 27684.8,3637.65 27686.1,3637.15C27687.3,3636.67 27688.6,3636.4 27690,3636.26C27692,3636.05 27694.1,3636.13 27696,3636.25C27698.1,3636.38 27700.1,3637.46 27702.2,3638.01C27703.1,3638.27 27704.1,3638.41 27705,3638.34C27706.3,3638.23 27707.6,3637.91 27709.1,3637.48C27712,3636.62 27715.2,3635.31 27718.1,3634.44C27718.4,3634.37 27718.5,3634.11 27718.4,3633.86C27718.4,3633.62 27718.1,3633.48 27717.9,3633.56Z" style="fill:rgb(24,16,12);"/>
                    </g>
                    <g transform="matrix(1.02352,0.335583,-0.215634,1.59287,-7267.58,3513.75)">
                        <path d="M27665,3727C27668,3719.67 27666.6,3716.47 27666,3714C27665.3,3711.17 27664.3,3707.17 27665,3704C27665.7,3700.83 27668.2,3696.83 27670,3695C27671.5,3693.51 27674.2,3693.67 27676,3693C27677.7,3692.39 27679.5,3692.06 27681,3691C27682.8,3689.67 27686,3687.65 27687,3685C27688,3682.33 27686.8,3678 27687,3675C27687.1,3672.32 27686.5,3669.17 27688,3667C27689.5,3664.83 27693.7,3663.17 27696,3662C27697.9,3661.06 27699.9,3660.3 27702,3660C27704.3,3659.67 27707.8,3659.67 27710,3660C27711.8,3660.27 27713.2,3662 27715,3662C27717.5,3662 27721.7,3660.67 27725,3660" style="fill:rgb(115,50,22);"/>
                        <path d="M27665.4,3727.17C27666.5,3724.51 27667,3722.38 27667.2,3720.63C27667.5,3717.46 27666.8,3715.53 27666.4,3713.91C27666,3712.21 27665.5,3710.1 27665.2,3708C27665.1,3706.64 27665.1,3705.3 27665.4,3704.08C27665.7,3702.59 27666.4,3700.91 27667.2,3699.37C27668.2,3697.69 27669.3,3696.17 27670.2,3695.23C27670.6,3694.8 27671.2,3694.53 27671.7,3694.32C27673.1,3693.82 27674.8,3693.75 27676.1,3693.28C27677.1,3692.91 27678.2,3692.64 27679.2,3692.25C27679.9,3691.99 27680.6,3691.66 27681.2,3691.22C27682.3,3690.4 27683.9,3689.31 27685.2,3687.99C27686.1,3687.12 27686.8,3686.15 27687.2,3685.08C27687.5,3684.2 27687.6,3683.15 27687.6,3682.02C27687.6,3679.7 27687.1,3677.05 27687.2,3675.01C27687.3,3673.44 27687.1,3671.71 27687.2,3670.1C27687.3,3669 27687.5,3667.97 27688.1,3667.09C27688.7,3666.21 27689.8,3665.42 27691,3664.7C27692.7,3663.66 27694.7,3662.8 27696.1,3662.11C27697,3661.64 27698,3661.21 27699,3660.86C27700,3660.52 27701,3660.25 27702,3660.1C27703.2,3659.93 27704.6,3659.84 27706,3659.83C27707.5,3659.82 27708.9,3659.9 27710,3660.06C27711.4,3660.27 27712.6,3661.4 27713.9,3661.85C27714.3,3661.97 27714.6,3662.04 27715,3662.04C27715.9,3662.04 27716.9,3661.88 27718,3661.64C27720.2,3661.19 27722.8,3660.45 27725,3660C27722.8,3660.43 27720.2,3661.15 27718,3661.59C27716.9,3661.81 27715.8,3661.96 27715,3661.96C27714.6,3661.96 27714.3,3661.88 27713.9,3661.76C27712.6,3661.3 27711.4,3660.16 27710,3659.94C27708.9,3659.76 27707.5,3659.67 27706,3659.67C27704.6,3659.67 27703.1,3659.74 27702,3659.9C27700.9,3660.05 27699.9,3660.31 27698.9,3660.66C27697.9,3661 27696.9,3661.42 27695.9,3661.89C27694.6,3662.57 27692.6,3663.42 27690.8,3664.45C27689.6,3665.18 27688.5,3666 27687.9,3666.91C27687.4,3667.6 27687.1,3668.4 27687,3669.25C27686.6,3671.07 27686.9,3673.14 27686.8,3674.99C27686.7,3677.03 27687.2,3679.7 27687.2,3682.03C27687.2,3683.09 27687.1,3684.09 27686.8,3684.92C27686.4,3685.92 27685.7,3686.82 27684.9,3687.63C27683.6,3688.92 27682,3689.98 27680.8,3690.78C27680.3,3691.19 27679.6,3691.48 27679,3691.72C27678,3692.1 27676.9,3692.36 27675.9,3692.72C27674.6,3693.18 27672.9,3693.24 27671.5,3693.73C27670.9,3693.96 27670.3,3694.29 27669.8,3694.77C27668.8,3695.74 27667.6,3697.3 27666.7,3699.03C27665.7,3700.63 27665,3702.38 27664.6,3703.93C27664.4,3705.21 27664.4,3706.64 27664.5,3708.07C27664.7,3710.21 27665.2,3712.37 27665.6,3714.09C27666,3715.65 27666.7,3717.5 27666.3,3720.54C27666.1,3722.22 27665.6,3724.27 27664.6,3726.83C27664.5,3727.06 27664.6,3727.33 27664.8,3727.43C27665.1,3727.52 27665.3,3727.41 27665.4,3727.17Z" style="fill:rgb(24,16,12);"/>
                    </g>
                    <g transform="matrix(1.03741,0.208109,-0.133723,1.61448,-7937.29,6776.16)">
                        <path d="M27803,3844C27804.2,3847.19 27800.3,3850.83 27801,3854C27801.7,3857.17 27806.2,3859.49 27807,3863C27808,3867.33 27807.2,3875.5 27807,3880C27806.9,3883.35 27805.7,3886.67 27806,3890C27806.3,3893.33 27808.5,3896.67 27809,3900C27809.5,3903.3 27809.8,3906.76 27809,3910C27808.2,3913.5 27806.2,3917.83 27804,3921C27801.9,3924.11 27798.7,3926.41 27796,3929C27793,3931.83 27788.3,3935.17 27786,3938C27784.1,3940.3 27782.8,3943.13 27782,3946C27781,3949.5 27779.5,3954.64 27780,3959C27780.5,3963.67 27781.8,3970.83 27785,3974C27788.2,3977.17 27799,3978 27799,3978C27799,3978 27793.9,3974.68 27793,3972C27792,3969 27792.7,3963 27793,3960C27793.2,3957.91 27793.7,3954.17 27795,3954C27796.3,3953.83 27800,3956.83 27801,3959C27802,3961.17 27801,3967 27801,3967C27801,3967 27806.4,3964.53 27807,3962C27808,3957.83 27805.8,3943.67 27807,3942C27808.2,3940.33 27811.8,3950.17 27814,3952C27815.5,3953.31 27820,3953 27820,3953C27820,3953 27811.5,3935.83 27812,3933C27812.5,3930.17 27819.8,3934.17 27823,3936C27826.2,3937.83 27829.7,3940.46 27831,3944C27832.3,3947.67 27831,3958 27831,3958C27831,3958 27836.9,3948.59 27840,3944C27843.5,3938.83 27851.1,3933.87 27852,3927C27853.3,3917.17 27851.2,3897.5 27848,3885C27845,3873.29 27837.1,3863.37 27833,3852C27828.7,3840 27828.5,3821.67 27822,3813C27815.8,3804.77 27800,3800 27794,3800C27788.9,3800 27785,3808.01 27786,3813C27787.5,3820.33 27800.5,3837.17 27803,3844Z" style="fill:rgb(115,50,22);stroke:rgb(24,16,12);stroke-width:0.92px;"/>
                    </g>
                    <g transform="matrix(1.03741,0.208109,-0.133723,1.61448,-7937.29,6776.16)">
                        <path d="M27748,3769C27749.7,3766.13 27748.5,3757.33 27750,3755C27751.5,3752.67 27755.2,3751.67 27758,3751C27760.8,3750.33 27764.3,3750.83 27767,3751C27769.4,3751.15 27771.8,3751.26 27774,3752C27776.5,3752.83 27780.3,3754.5 27782,3756C27783.3,3757.2 27782.4,3760.29 27784,3761C27786.3,3762 27792.5,3761.67 27796,3762C27799,3762.29 27802.5,3761.26 27805,3763C27807.8,3765 27810.8,3770.67 27813,3774C27814.9,3776.88 27816.5,3780.33 27818,3783C27819.3,3785.34 27819.7,3789 27822,3790C27824.3,3791 27830,3790.5 27832,3789C27834,3787.5 27833.3,3781 27834,3781C27834.7,3781 27836.2,3786.83 27836,3789C27835.9,3790.94 27834.2,3792.5 27833,3794C27831.8,3795.49 27829.2,3796.17 27829,3798C27828.8,3799.83 27831,3802.83 27832,3805C27832.9,3807.03 27833.5,3809.67 27835,3811C27836.5,3812.33 27838.9,3812.53 27841,3813C27843.2,3813.5 27846.2,3813.17 27848,3814C27849.7,3814.78 27851.2,3816.33 27852,3818C27852.8,3819.67 27853.1,3821.98 27853,3824C27852.8,3826.67 27852.2,3831 27851,3834C27849.9,3836.93 27846.8,3839 27846,3842C27845.2,3845 27845.2,3849.33 27846,3852C27846.8,3854.49 27849.9,3855.63 27851,3858C27852.7,3861.67 27854.7,3869.5 27856,3874C27857.1,3877.64 27858.5,3881.83 27859,3885C27859.4,3887.63 27858.3,3890.67 27859,3893C27859.7,3895.31 27861.5,3897.09 27863,3899C27865.2,3901.83 27870.1,3905.64 27872,3910C27874,3914.67 27874.8,3922.33 27875,3927C27875.1,3930.72 27874.5,3938.67 27873,3938C27871.5,3937.33 27868.5,3927 27866,3923C27863.9,3919.6 27858.8,3912.83 27858,3914C27857.2,3915.17 27861.7,3926.67 27861,3930C27860.5,3932.64 27855.8,3932 27854,3934C27851.2,3937.17 27845.2,3945.17 27844,3949C27843.2,3951.72 27848.8,3957.67 27847,3957C27845.2,3956.33 27835.8,3949.67 27833,3945C27830.2,3940.36 27829.7,3932.5 27830,3929C27830.2,3926.65 27834.8,3926.35 27835,3924C27835.5,3918.83 27835.3,3905.17 27833,3898C27830.9,3891.41 27824.7,3886.86 27821,3881C27816.7,3874.17 27826.4,3852.95 27824,3844C27821.3,3834 27818.8,3831.33 27818.7,3824C27818.6,3821.31 27806.6,3815.63 27806,3813C27805,3808.33 27802.8,3796.83 27799,3793C27795.2,3789.17 27787.9,3792.37 27783,3790C27776.8,3787 27769.5,3777.5 27762,3775C27754.5,3772.5 27758.2,3774.67 27756,3773C27753.8,3771.33 27746,3772.33 27748,3769Z" style="fill:rgb(115,50,22);stroke:rgb(24,16,12);stroke-width:0.92px;"/>
                    </g>
                    <g transform="matrix(1.03741,0.208109,-0.133723,1.61448,-7937.29,6776.16)">
                        <path d="M27750,3779C27749.8,3776.83 27749,3772.28 27751,3770C27753.2,3767.5 27758.8,3765 27763,3764C27767.2,3763 27772.3,3762.83 27776,3764C27779.6,3765.15 27782.2,3769.67 27785,3771C27787.4,3772.14 27790.4,3771.43 27793,3772C27796.8,3772.83 27804.8,3773.83 27808,3776C27810.7,3777.85 27811.3,3782.67 27812,3785C27812.5,3786.6 27811.7,3788.35 27812,3790C27812.3,3792.17 27812.2,3795.91 27814,3798C27816,3800.33 27821.8,3801.33 27824,3804C27826.2,3806.67 27827.5,3811 27827,3814C27826.5,3817 27819.8,3819.67 27821,3822C27822.2,3824.33 27830.4,3824.88 27834,3828C27837.7,3831.17 27841.8,3837.33 27843,3841C27843.9,3843.93 27842.5,3847.67 27841,3850C27839.5,3852.33 27835.5,3853.17 27834,3855C27832.7,3856.63 27832.1,3858.9 27832,3861C27831.8,3863.5 27832.5,3867.83 27833,3870C27833.3,3871.45 27834.4,3872.64 27835,3874C27835.8,3875.83 27836.3,3879.14 27838,3881C27840,3883.17 27844.9,3884.07 27847,3887C27850.3,3891.67 27857.2,3903.5 27858,3909C27858.6,3913.13 27855.2,3917.26 27852,3920C27848.2,3923.33 27839.2,3926 27835,3929C27831.7,3931.35 27828.3,3934.83 27827,3938C27825.7,3941.07 27826.8,3944.67 27827,3948C27827.2,3951.5 27828,3959 27828,3959C27828,3959 27821.8,3953.72 27821,3950C27819.8,3944.5 27818,3932 27821,3926C27824,3920 27836.8,3919 27839,3914C27841.2,3909 27836.5,3900.33 27834,3896C27831.9,3892.3 27826.5,3891.45 27824,3888C27820,3882.5 27812,3869.5 27810,3863C27808.6,3858.49 27812.2,3853.71 27812,3849C27811.7,3842.67 27811.2,3831.67 27808,3825C27804.9,3818.4 27796.8,3814.17 27793,3809C27789.6,3804.45 27789.2,3797.84 27785,3794C27780.7,3790 27772.5,3786.83 27767,3785C27762.2,3783.41 27754.8,3784 27752,3783C27750.6,3782.5 27750.1,3780.49 27750,3779Z" style="fill:rgb(115,50,22);stroke:rgb(24,16,12);stroke-width:0.92px;"/>
                    </g>
                    <g transform="matrix(1.03741,0.208109,-0.133723,1.61448,-7937.29,6776.16)">
                        <path d="M27751,3794C27755,3794 27760.2,3793.33 27763,3794C27765.1,3794.49 27766.7,3796.31 27768,3798C27769.7,3800.17 27772.5,3804.5 27773,3807C27773.4,3809.07 27770.5,3811 27771,3813C27771.5,3815 27774.2,3817.67 27776,3819C27777.7,3820.24 27780.8,3819.25 27782,3821C27783.3,3823 27784,3828.5 27784,3831C27784,3832.8 27782.4,3834.26 27782,3836C27781.5,3838 27781.2,3840.65 27781,3843C27780.8,3845.5 27779.8,3848.62 27781,3851C27782.3,3853.67 27787,3856.67 27789,3859C27790.6,3860.83 27792.3,3863.17 27793,3865C27793.6,3866.57 27793.4,3868.38 27793,3870C27792.5,3872 27790.7,3874.83 27790,3877C27789.4,3878.94 27789.1,3880.98 27789,3883C27788.8,3885.33 27788.3,3888.5 27789,3891C27789.7,3893.5 27791.5,3896.33 27793,3898C27794.3,3899.45 27797.2,3899.33 27798,3901C27798.8,3902.67 27798.9,3905.84 27798,3908C27796.8,3910.83 27791,3918 27791,3918C27791,3918 27803.7,3911.5 27806,3908C27808,3904.94 27805.5,3899.83 27805,3897C27804.6,3894.92 27803.2,3893.1 27803,3891C27802.7,3887.83 27802.3,3882 27803,3878C27803.6,3874.15 27806.7,3870.33 27807,3867C27807.3,3863.94 27805.8,3860.5 27805,3858C27804.3,3855.88 27802.3,3854.22 27802,3852C27801.7,3849.17 27803.9,3844.58 27803,3841C27801.8,3836.17 27795,3827.5 27795,3823C27795,3818.99 27802,3817.89 27803,3814C27804,3810 27803,3803.63 27801,3799C27798.8,3794 27793.7,3786.83 27790,3784C27787.1,3781.72 27782.3,3782.33 27779,3782C27776,3781.7 27772.5,3782.17 27770,3782C27768,3781.87 27766,3781.13 27764,3781C27761.3,3780.83 27756.8,3780.33 27754,3781C27751.4,3781.62 27748.2,3783.17 27747,3785C27745.8,3786.83 27746.3,3790.5 27747,3792C27747.6,3793.36 27749.7,3793.33 27751,3794" style="fill:rgb(115,50,22);stroke:rgb(24,16,12);stroke-width:0.92px;"/>
                    </g>
                    <g transform="matrix(1.03741,0.208109,-0.133723,1.61448,-7937.29,6776.16)">
                        <path d="M27799,3906C27799,3903 27799.6,3899.95 27799,3897C27798.3,3893.5 27795.3,3889.2 27795,3885C27794.7,3880.5 27796.3,3873.67 27797,3870C27797.4,3867.61 27797.8,3862.35 27797.1,3860C27796.3,3856.83 27794,3854.5 27792,3851C27790.3,3848.02 27787.7,3844.83 27787,3842C27786.4,3839.38 27787.5,3836.65 27788,3834" style="fill:rgb(115,50,22);"/>
                        <path d="M27799.5,3906C27799.5,3903.9 27799.7,3901.78 27799.7,3899.69C27799.7,3898.76 27799.6,3897.84 27799.4,3896.92C27798.9,3894.43 27797.3,3891.55 27796.2,3888.58C27795.8,3887.39 27795.4,3886.18 27795.3,3884.97C27795.2,3883.23 27795.4,3881.13 27795.7,3879C27796.1,3875.67 27796.9,3872.27 27797.3,3870.05C27797.5,3868.64 27797.7,3866.22 27797.7,3864C27797.7,3862.42 27797.6,3860.93 27797.4,3859.94C27797.1,3858.91 27796.6,3857.96 27796.1,3857.03C27795,3855.11 27793.5,3853.28 27792.1,3850.92C27791,3848.91 27789.4,3846.82 27788.3,3844.8C27787.8,3843.83 27787.3,3842.89 27787.1,3841.97C27786.9,3840.93 27786.9,3839.86 27787.1,3838.78C27787.3,3837.19 27787.8,3835.59 27788.1,3834.01C27788.1,3833.97 27788.1,3833.94 27788,3833.93C27788,3833.92 27787.9,3833.95 27787.9,3833.99C27787.6,3835.56 27787.1,3837.16 27786.9,3838.75C27786.7,3839.85 27786.6,3840.95 27786.9,3842.03C27787.1,3842.96 27787.5,3843.93 27788.1,3844.92C27789.2,3846.95 27790.7,3849.07 27791.9,3851.08C27793.2,3853.46 27794.7,3855.3 27795.8,3857.23C27796.3,3858.13 27796.7,3859.05 27796.9,3860.06C27797.2,3861.01 27797.3,3862.46 27797.2,3863.99C27797.2,3866.19 27797,3868.56 27796.7,3869.95C27796.3,3872.18 27795.5,3875.58 27795,3878.91C27794.7,3881.09 27794.5,3883.24 27794.7,3885.03C27794.7,3886.29 27795.1,3887.57 27795.5,3888.83C27796.5,3891.76 27798.1,3894.62 27798.6,3897.08C27798.8,3897.94 27798.8,3898.82 27798.8,3899.7C27798.8,3901.79 27798.5,3903.91 27798.5,3906C27798.5,3906.26 27798.7,3906.46 27799,3906.46C27799.3,3906.46 27799.5,3906.26 27799.5,3906Z" style="fill:rgb(24,16,12);"/>
                    </g>
                    <g transform="matrix(1.03741,0.208109,-0.133723,1.61448,-7937.29,6776.16)">
                        <path d="M27787,3782C27790.7,3783 27795.2,3783.33 27798,3785C27800.6,3786.56 27802.7,3789.22 27804,3792C27805.3,3794.83 27803.9,3799.33 27806,3802C27808.5,3805.17 27817.3,3808.17 27819,3811C27820.4,3813.45 27813.9,3821.12 27816,3824.62C27817.2,3826.66 27821.1,3827.82 27823,3829C27825.7,3830.67 27831,3833.67 27833,3836C27834.6,3837.84 27835.5,3840.62 27835,3843C27834.5,3845.5 27831.2,3848.17 27830,3851C27828.8,3853.83 27827.9,3856.93 27828,3860C27828.2,3863.83 27830,3869.33 27831,3874" style="fill:rgb(115,50,22);"/>
                        <path d="M27786.9,3782.45C27789.4,3783.11 27792.2,3783.48 27794.7,3784.16C27795.8,3784.47 27796.9,3784.85 27797.8,3785.37C27799.1,3786.12 27800.2,3787.14 27801.2,3788.32C27802.2,3789.49 27803,3790.82 27803.6,3792.17C27804.1,3793.14 27804.2,3794.32 27804.3,3795.55C27804.3,3796.77 27804.3,3798.03 27804.5,3799.2C27804.7,3800.32 27805,3801.36 27805.7,3802.22C27807.6,3804.62 27813.1,3806.94 27816.5,3809.14C27817.5,3809.83 27818.3,3810.49 27818.7,3811.16C27818.9,3811.46 27818.9,3811.85 27818.9,3812.3C27818.8,3812.87 27818.6,3813.51 27818.3,3814.22C27817.5,3816.53 27815.9,3819.4 27815.4,3821.78C27815.2,3822.91 27815.3,3823.94 27815.8,3824.76C27816.2,3825.43 27816.9,3826.02 27817.7,3826.54C27819.3,3827.61 27821.6,3828.4 27822.9,3829.2C27824.4,3830.17 27826.9,3831.6 27829.1,3833.08C27830.6,3834.11 27832,3835.18 27832.8,3836.13C27833.6,3837.03 27834.2,3838.15 27834.6,3839.34C27834.9,3840.54 27835.1,3841.8 27834.8,3842.97C27834.7,3843.52 27834.5,3844.08 27834.1,3844.66C27832.9,3846.65 27830.8,3848.75 27829.9,3850.94C27829.2,3852.65 27828.5,3854.45 27828.2,3856.28C27827.9,3857.51 27827.8,3858.76 27827.9,3860.01C27827.9,3861.28 27828.2,3862.73 27828.5,3864.27C27829.2,3867.39 27830.3,3870.89 27830.9,3874.01C27830.9,3874.05 27831,3874.08 27831,3874.07C27831.1,3874.06 27831.1,3874.02 27831.1,3873.99C27830.4,3870.86 27829.4,3867.35 27828.7,3864.23C27828.4,3862.7 27828.2,3861.26 27828.1,3859.99C27828.1,3858.77 27828.2,3857.54 27828.4,3856.33C27828.8,3854.52 27829.4,3852.74 27830.1,3851.06C27831,3848.88 27833.2,3846.81 27834.4,3844.83C27834.8,3844.22 27835.1,3843.62 27835.2,3843.03C27835.4,3841.81 27835.3,3840.49 27834.9,3839.23C27834.6,3837.99 27834,3836.81 27833.2,3835.87C27832.3,3834.89 27830.9,3833.79 27829.3,3832.72C27827.2,3831.22 27824.7,3829.78 27823.1,3828.8C27821.8,3827.99 27819.6,3827.18 27817.9,3826.11C27817.2,3825.63 27816.6,3825.11 27816.2,3824.49C27815.8,3823.77 27815.8,3822.87 27816,3821.88C27816.4,3819.53 27818,3816.71 27818.9,3814.44C27819.2,3813.52 27819.5,3812.69 27819.5,3812.01C27819.5,3811.56 27819.5,3811.16 27819.3,3810.84C27818.8,3810.11 27818,3809.36 27816.8,3808.61C27813.6,3806.42 27808.1,3804.15 27806.3,3801.78C27805.7,3801.01 27805.4,3800.08 27805.2,3799.09C27805,3797.7 27805.1,3796.19 27805,3794.78C27804.9,3793.71 27804.8,3792.7 27804.4,3791.83C27803.7,3790.41 27802.8,3789.03 27801.8,3787.79C27800.8,3786.54 27799.6,3785.44 27798.2,3784.63C27797.3,3784.08 27796.2,3783.66 27794.9,3783.32C27792.5,3782.62 27789.6,3782.24 27787.1,3781.56C27786.9,3781.49 27786.6,3781.63 27786.6,3781.88C27786.5,3782.12 27786.6,3782.38 27786.9,3782.45Z" style="fill:rgb(24,16,12);"/>
                    </g>
                    <g transform="matrix(1.03741,0.208109,-0.133723,1.61448,-7937.29,6776.16)">
                        <path d="M27764,3786C27769.7,3787 27777,3787.17 27781,3789C27784.2,3790.48 27787,3793.59 27788,3797C27789,3800.5 27786.7,3806.17 27787,3810C27787.3,3813.47 27789,3816.67 27790,3820" style="fill:rgb(115,50,22);"/>
                        <path d="M27763.9,3786.45C27767.7,3787.09 27772.2,3787.35 27775.9,3787.98C27777.8,3788.3 27779.5,3788.7 27780.9,3789.3C27782.4,3790.01 27783.9,3791.12 27785.1,3792.46C27786.3,3793.81 27787.3,3795.4 27787.8,3797.07C27788,3797.82 27788,3798.68 27788,3799.59C27787.9,3802.92 27786.6,3807.03 27786.9,3810.01C27787,3811.07 27787.2,3812.1 27787.5,3813.11C27788.2,3815.44 27789.2,3817.7 27789.9,3820.02C27789.9,3820.06 27790,3820.08 27790,3820.07C27790.1,3820.06 27790.1,3820.02 27790.1,3819.98C27789.4,3817.65 27788.4,3815.38 27787.7,3813.04C27787.4,3812.04 27787.2,3811.03 27787.1,3809.99C27786.9,3807.01 27788.3,3802.93 27788.5,3799.61C27788.5,3798.64 27788.5,3797.73 27788.2,3796.93C27787.8,3795.18 27786.8,3793.51 27785.6,3792.08C27784.3,3790.65 27782.8,3789.47 27781.1,3788.7C27779.8,3788.06 27778,3787.61 27776.1,3787.25C27772.3,3786.57 27767.8,3786.24 27764.1,3785.55C27763.8,3785.5 27763.6,3785.67 27763.5,3785.92C27763.5,3786.17 27763.7,3786.41 27763.9,3786.45Z" style="fill:rgb(24,16,12);"/>
                    </g>
                    <g transform="matrix(1.03741,0.208109,-0.133723,1.61448,-7937.29,6776.16)">
                        <path d="M27793,3958C27793,3954.67 27793,3949.19 27794,3946C27795,3942.67 27797.8,3939.23 27800,3936C27802.3,3932.5 27804.8,3927.33 27808,3925C27811.1,3922.74 27816.2,3924.53 27819,3922C27822,3919.33 27825.3,3913.17 27826,3909C27826.7,3904.93 27824,3901 27823,3897" style="fill:rgb(115,50,22);"/>
                        <path d="M27793.5,3958C27793.5,3956.04 27793.5,3953.34 27793.6,3950.79C27793.8,3949.06 27794,3947.4 27794.4,3946.12C27794.8,3944.75 27795.5,3943.37 27796.4,3941.99C27797.6,3940.03 27799,3938.08 27800.3,3936.19C27801.9,3933.8 27803.5,3930.64 27805.4,3928.12C27806.3,3926.97 27807.2,3925.95 27808.2,3925.22C27809.3,3924.34 27810.9,3924.09 27812.4,3923.94C27814,3923.79 27815.6,3923.74 27817,3923.31C27817.8,3923.06 27818.5,3922.71 27819.1,3922.16C27820.7,3920.79 27822.3,3918.53 27823.6,3916.08C27824.8,3913.68 27825.8,3911.1 27826.1,3909.02C27826.3,3907.75 27826.2,3906.5 27825.9,3905.25C27825.3,3902.48 27823.8,3899.75 27823.1,3896.98C27823.1,3896.95 27823,3896.92 27823,3896.93C27822.9,3896.94 27822.9,3896.98 27822.9,3897.02C27823.6,3899.79 27825.1,3902.53 27825.7,3905.3C27826,3906.52 27826.1,3907.74 27825.9,3908.98C27825.5,3911.03 27824.5,3913.56 27823.3,3915.91C27822,3918.31 27820.4,3920.52 27818.9,3921.84C27818.3,3922.34 27817.6,3922.66 27816.9,3922.88C27815.5,3923.3 27813.9,3923.32 27812.4,3923.45C27810.7,3923.59 27809.1,3923.86 27807.8,3924.78C27806.8,3925.53 27805.8,3926.58 27804.9,3927.77C27803,3930.27 27801.3,3933.43 27799.7,3935.81C27798.4,3937.69 27796.9,3939.64 27795.7,3941.6C27794.8,3943.03 27794.1,3944.47 27793.6,3945.89C27793.2,3947.21 27793,3948.93 27792.8,3950.72C27792.6,3953.29 27792.5,3956.02 27792.5,3958C27792.5,3958.26 27792.7,3958.46 27793,3958.46C27793.3,3958.46 27793.5,3958.26 27793.5,3958Z" style="fill:rgb(24,16,12);"/>
                    </g>
                    <g transform="matrix(1.03741,0.208109,-0.133723,1.61448,-7937.29,6776.16)">
                        <path d="M27827,3941C27827.3,3937.67 27826.3,3933.87 27828,3931C27830,3927.67 27835.8,3923.67 27839,3921C27841.5,3918.85 27845.8,3918.1 27847,3915C27848.3,3911.67 27848.6,3905.38 27847,3901C27845.3,3896.5 27840.3,3892.37 27837,3888C27833.5,3883.33 27828.7,3881 27826,3873" style="fill:rgb(115,50,22);"/>
                        <path d="M27827.5,3941.05C27827.7,3938.74 27827.2,3936.22 27827.5,3933.94C27827.6,3932.97 27827.9,3932.05 27828.4,3931.21C27829,3930.16 27830,3929.04 27831.2,3927.91C27833.7,3925.5 27837.1,3923.08 27839.2,3921.26C27841,3919.79 27843.5,3918.96 27845.3,3917.59C27846.2,3916.93 27846.9,3916.14 27847.3,3915.11C27848,3913.33 27848.4,3910.72 27848.4,3908C27848.4,3905.55 27848,3903.02 27847.2,3900.92C27846.7,3899.45 27845.8,3898.03 27844.7,3896.62C27842.4,3893.7 27839.4,3890.86 27837.1,3887.91C27834.8,3884.88 27832,3882.84 27829.5,3879.59C27828.2,3877.85 27827,3875.76 27826.1,3872.98C27826.1,3872.94 27826,3872.92 27826,3872.93C27825.9,3872.95 27825.9,3872.99 27825.9,3873.02C27826.9,3875.83 27828,3877.95 27829.4,3879.71C27831.8,3882.99 27834.6,3885.05 27836.9,3888.1C27839.1,3891.07 27842.1,3893.94 27844.3,3896.88C27845.4,3898.26 27846.3,3899.65 27846.8,3901.08C27847.5,3903.14 27847.9,3905.61 27847.8,3908C27847.8,3910.64 27847.4,3913.17 27846.7,3914.89C27846.4,3915.81 27845.7,3916.5 27844.9,3917.09C27843.1,3918.45 27840.5,3919.27 27838.8,3920.74C27836.6,3922.53 27833.2,3924.94 27830.7,3927.34C27829.4,3928.51 27828.3,3929.68 27827.6,3930.79C27827.1,3931.72 27826.8,3932.75 27826.7,3933.83C27826.4,3936.12 27826.8,3938.65 27826.5,3940.95C27826.5,3941.21 27826.7,3941.43 27827,3941.46C27827.2,3941.48 27827.4,3941.3 27827.5,3941.05Z" style="fill:rgb(24,16,12);"/>
                    </g>
                    <g transform="matrix(1.03741,0.208109,-0.133723,1.61448,-7937.29,6776.16)">
                        <path d="M27842,3857C27842.3,3861 27841.8,3865.33 27843,3869C27844.2,3872.67 27847.2,3875.83 27849,3879C27850.7,3881.97 27852.7,3885.17 27854,3888C27855.2,3890.58 27855.6,3893.5 27857,3896C27859,3899.67 27863.3,3905.17 27866,3910C27868.8,3915 27871.3,3920.67 27874,3926" style="fill:rgb(115,50,22);"/>
                        <path d="M27841.5,3857.04C27841.8,3859.81 27841.6,3862.73 27841.9,3865.49C27842,3866.74 27842.2,3867.97 27842.6,3869.12C27843,3870.25 27843.5,3871.33 27844.1,3872.38C27845.5,3874.76 27847.4,3876.96 27848.7,3879.17C27849.7,3880.91 27850.8,3882.72 27851.8,3884.5C27852.5,3885.74 27853.2,3886.96 27853.7,3888.12C27854.6,3889.91 27855.1,3891.87 27855.7,3893.74C27856,3894.56 27856.4,3895.36 27856.8,3896.12C27858.4,3899.07 27861.5,3903.22 27864.1,3907.25C27864.7,3908.2 27865.3,3909.16 27865.9,3910.08C27866.7,3911.6 27867.6,3913.18 27868.4,3914.8C27870.3,3918.48 27872.1,3922.34 27873.9,3926.03C27874,3926.07 27874,3926.08 27874,3926.06C27874.1,3926.05 27874.1,3926 27874.1,3925.97C27872.2,3922.25 27870.5,3918.38 27868.6,3914.68C27867.8,3913.05 27867,3911.45 27866.1,3909.92C27865.6,3908.99 27865,3908.02 27864.4,3907.06C27861.9,3903.02 27858.8,3898.85 27857.2,3895.88C27856.8,3895.14 27856.5,3894.36 27856.2,3893.56C27855.6,3891.67 27855.1,3889.69 27854.3,3887.88C27853.7,3886.7 27853.1,3885.46 27852.4,3884.2C27851.4,3882.41 27850.3,3880.58 27849.3,3878.83C27848,3876.61 27846.2,3874.38 27844.8,3871.99C27844.2,3870.99 27843.7,3869.95 27843.4,3868.88C27843,3867.77 27842.8,3866.61 27842.7,3865.41C27842.5,3862.65 27842.7,3859.73 27842.5,3856.96C27842.4,3856.71 27842.2,3856.52 27842,3856.54C27841.7,3856.56 27841.5,3856.78 27841.5,3857.04Z" style="fill:rgb(24,16,12);"/>
                    </g>
                </g>
            </g>
        </g>
    </g>
</svg>
